<svg width="105" height="104" viewBox="0 0 105 104" fill="none" xmlns="http://www.w3.org/2000/svg">
<g clip-path="url(#clip0_2_4525)">
<path d="M96.7819 36.9755C96.3919 38.0259 96.3942 39.1503 96.1519 40.2331C93.5674 51.7733 84.224 59.9704 72.4161 60.8912C64.3258 61.5205 57.2577 59.1237 51.4172 53.372C46.2782 48.3122 40.11 46.0101 32.9196 46.5168C29.9836 46.7393 27.1215 47.548 24.5016 48.8952C23.8416 49.2261 23.1701 49.2862 22.5378 48.8374C22.2745 48.6573 22.069 48.4045 21.9461 48.1096C21.8233 47.8148 21.7883 47.4905 21.8455 47.1762C21.8813 46.888 21.9917 46.6141 22.1658 46.382C22.3399 46.1498 22.5716 45.9673 22.8378 45.8528C27.3797 43.5304 32.4976 42.5834 37.5671 43.1274C44.1321 43.7983 49.5942 46.6765 54.2832 51.2921C59.023 55.9563 64.9119 57.8905 71.4677 57.5018C80.0704 56.9928 86.6793 52.8746 90.6414 45.2652C97.9518 31.2193 89.9076 14.515 74.5276 11.5721C69.6134 10.6171 64.5228 11.2837 60.0181 13.4721C55.5133 15.6605 51.8367 19.2529 49.5388 23.7116C49.4096 23.9615 49.308 24.2206 49.1465 24.5445C49.4603 24.5052 49.6842 24.4635 49.908 24.452C50.2989 24.4171 50.6894 24.5227 51.0098 24.7499C51.3302 24.977 51.5596 25.311 51.6572 25.6921C51.8879 26.518 51.6387 27.2422 50.8957 27.61C49.4857 28.3041 48.0343 28.9496 46.5689 29.5326C46.3803 29.6115 46.1781 29.6523 45.9737 29.6526C45.7694 29.653 45.567 29.6129 45.3781 29.5346C45.1893 29.4564 45.0176 29.3416 44.8731 29.1967C44.7286 29.0518 44.614 28.8798 44.536 28.6905C43.8875 27.344 43.2853 25.9789 42.7153 24.5908C42.5555 24.2141 42.5375 23.7919 42.6649 23.403C42.7922 23.014 43.0561 22.6846 43.4076 22.4761C44.1137 22.0412 44.9559 22.1707 45.6044 22.8186C45.6967 22.9111 45.7798 23.0152 45.9228 23.1795C46.8377 21.2687 47.9573 19.4635 49.2619 17.7957C53.824 12.0487 59.7706 8.79579 67.0303 7.89811C67.2126 7.87498 67.4502 7.97678 67.5564 7.71765H72.4023C73.3576 7.89811 74.3384 7.80094 75.296 7.98372C79.9295 8.83626 84.2483 10.9246 87.7985 14.0292C92.3213 17.9762 95.1596 22.8764 96.4311 28.7206C96.6503 29.7316 96.5927 30.7704 96.7865 31.7815L96.7819 36.9755Z" fill="#C02D4E"/>
<path d="M8.20312 66.7516C8.66464 65.5208 8.66464 64.1881 9.03155 62.9272C9.49223 61.2342 10.1103 59.5881 10.8776 58.0108C11.503 56.7522 12.426 56.3057 13.4159 56.773C14.4059 57.2404 14.5974 58.2491 14.0113 59.5216C10.5499 67.013 10.7276 74.4328 14.9574 81.5008C19.6072 89.2792 26.6961 93.0989 35.7256 92.8028C44.6629 92.509 51.251 88.1409 55.5316 80.2931C55.6516 80.0618 55.7439 79.8304 55.8869 79.5227C55.5639 79.5482 55.3239 79.5782 55.0816 79.5852C54.7051 79.6068 54.3326 79.4979 54.0267 79.2767C53.7208 79.0555 53.5001 78.7356 53.4017 78.3705C53.1986 77.5654 53.3601 76.8181 54.1401 76.4387C55.5877 75.7384 57.0584 75.0883 58.5522 74.4883C59.316 74.1829 60.1237 74.5461 60.5021 75.3305C61.1528 76.6754 61.7628 78.0397 62.332 79.4232C62.5009 79.8124 62.5186 80.2508 62.3815 80.6524C62.2445 81.0539 61.9626 81.3896 61.5913 81.5934C60.7813 82.0561 60.0037 81.8247 59.1314 80.8669C58.9837 81.1654 58.8545 81.4453 58.7114 81.7183C54.4309 89.8576 47.7366 94.693 38.707 95.9956C24.4762 98.0663 11.9045 89.2375 8.77771 75.1986C8.56311 74.2338 8.57926 73.2228 8.20312 72.2904V66.7516Z" fill="#C02D4E"/>
<path d="M70.1224 28.3434C66.6933 28.3596 64.0835 31.0086 64.095 34.4652C64.095 37.7042 66.8641 40.4319 70.1409 40.4366C71.7406 40.4384 73.276 39.8053 74.4115 38.6755C75.547 37.5457 76.1902 36.0112 76.2006 34.4073C76.1867 30.9462 73.5607 28.3249 70.1224 28.3434ZM70.1593 36.9569C69.8134 36.9595 69.4704 36.8924 69.1507 36.7597C68.8311 36.627 68.5412 36.4314 68.2983 36.1844C68.0554 35.9374 67.8644 35.6441 67.7365 35.3217C67.6087 34.9994 67.5467 34.6546 67.5541 34.3078C67.5763 33.6235 67.8638 32.9748 68.3554 32.4996C68.847 32.0244 69.5041 31.7601 70.187 31.7629C70.8668 31.775 71.5145 32.0553 71.9896 32.5429C72.4648 33.0306 72.7291 33.6863 72.7254 34.368C72.7312 34.7082 72.669 35.0462 72.5423 35.3619C72.4157 35.6776 72.2271 35.9646 71.9879 36.206C71.7487 36.4474 71.4636 36.6382 71.1495 36.7672C70.8354 36.8962 70.4987 36.9607 70.1593 36.9569Z" fill="#C02D4E"/>
<path d="M86.3355 37.7251C85.6778 37.2115 84.9994 36.7233 84.3186 36.2397C84.2066 36.1614 84.1144 36.0578 84.0495 35.9372C83.9846 35.8167 83.9487 35.6826 83.9448 35.5457C83.691 33.6184 84.1225 32.0591 86.0701 31.2285C86.1471 31.189 86.2179 31.1384 86.2801 31.0781C87.1754 30.3724 87.3508 29.5881 86.7808 28.5771C85.7039 26.6738 84.6125 24.7789 83.5064 22.8926C82.9087 21.8699 82.1218 21.6316 81.0142 22.0944C80.2988 22.392 79.5873 22.7005 78.8797 23.0198C78.6074 23.1447 78.3697 23.2512 78.0835 23.0198C77.3659 22.4854 76.3575 22.2586 75.8244 21.6316C75.2914 21.0047 75.5521 19.8617 75.3629 18.9617C75.3468 18.8784 75.3491 18.7905 75.3375 18.7049C75.1968 17.636 74.5714 17.0576 73.4915 17.0507C71.2716 17.0399 69.0517 17.0399 66.8318 17.0507C65.7126 17.0507 65.0688 17.6522 64.9419 18.7605C64.8496 19.561 64.7573 20.3638 64.6742 21.1666C64.6622 21.3038 64.6182 21.4363 64.5456 21.5533C64.473 21.6702 64.374 21.7684 64.2565 21.8399C62.6805 23.0314 61.0882 23.3692 59.3875 22.1082C59.3149 22.0675 59.2374 22.0364 59.1568 22.0157C58.1691 21.6432 57.3846 21.8746 56.8492 22.7746C55.7093 24.7072 54.5893 26.6522 53.4894 28.6095C52.954 29.5881 53.134 30.3748 54.0109 31.0503C54.6478 31.5431 55.3147 32.0012 55.9585 32.4848C56.3992 32.8156 56.4984 35.8094 56.0854 36.1726C56 36.249 55.8962 36.3022 55.8016 36.3716C55.1993 36.8135 54.5855 37.2438 53.9947 37.7066C53.1271 38.3845 52.954 39.1688 53.5009 40.1405C54.6039 42.0932 55.73 44.0366 56.8584 45.9754C57.0144 46.2726 57.2549 46.5167 57.5495 46.6765C57.8441 46.8364 58.1795 46.9048 58.513 46.8731C58.7829 46.9286 59.0968 46.7528 59.4106 46.6186C60.1029 46.3294 60.779 46.0194 61.4621 45.714C61.5699 45.6481 61.6928 45.6114 61.819 45.6074C61.9452 45.6033 62.0702 45.6321 62.182 45.6908C64.6604 46.9749 64.6627 46.9679 64.9511 49.8137C64.9511 49.927 64.9511 50.045 64.9765 50.1584C65.1311 51.063 65.768 51.6738 66.6887 51.6831C68.9963 51.7093 71.3039 51.7093 73.6115 51.6831C74.5876 51.6715 75.2268 51.063 75.3468 50.0982C75.4575 49.27 75.5406 48.4371 75.649 47.6088C75.7229 47.0512 78.2243 45.4849 78.7527 45.6631C78.9143 45.7163 79.0666 45.7996 79.2143 45.869C79.8742 46.1559 80.525 46.4636 81.1919 46.725C82.1149 47.0882 82.9272 46.8499 83.4325 45.9985C84.5909 44.0443 85.727 42.0762 86.8408 40.0942C87.3485 39.1896 87.1593 38.3706 86.3355 37.7251ZM82.0549 41.4801C81.2011 42.97 81.1665 43.0325 79.6158 42.2597C78.3997 41.6559 77.412 41.6906 76.4036 42.6554C75.6964 43.2963 74.8551 43.7706 73.9414 44.0435C72.9123 44.379 72.3261 44.9944 72.3054 46.098C72.296 46.1843 72.2822 46.27 72.2638 46.3548C72.1877 46.9541 72.3146 47.743 71.98 48.1039C71.5923 48.5134 70.7801 48.1525 70.3024 48.2335C68.2256 48.2335 68.1933 48.2335 68.0571 46.3664C67.9694 45.1749 67.5056 44.3836 66.301 44.0065C65.2629 43.6504 64.3092 43.0833 63.4996 42.3407C62.7797 41.716 62.0251 41.6675 61.1782 42.0469C60.5067 42.3477 59.7383 43.0371 59.1614 42.7803C58.5845 42.5235 58.3399 41.5981 57.9638 40.9572C57.2023 39.6523 57.163 39.569 58.4253 38.7801C59.6875 37.9911 60.2298 36.9708 59.8398 35.4485C59.6587 34.6553 59.6706 33.83 59.8744 33.0423C60.1698 31.793 59.7937 30.9046 58.6976 30.1781C57.17 29.1624 57.2069 29.1069 58.1345 27.4966C59.1152 25.7961 59.1337 25.7591 60.9452 26.6105C61.9859 27.101 62.8466 27.0362 63.7142 26.2542C64.487 25.5568 65.3986 25.0316 66.3887 24.7134C67.4687 24.364 67.9717 23.6607 68.0386 22.5548C68.0802 21.9 67.974 21.0162 68.3433 20.6576C68.7702 20.2435 69.6563 20.5396 70.3416 20.5327C72.0585 20.5165 72.1046 20.5327 72.2315 22.2471C72.3284 23.5357 72.79 24.3964 74.1168 24.792C75.1368 25.0951 76.0298 25.7175 76.8351 26.4301C77.5274 27.0339 78.2566 27.0802 79.0781 26.7331C79.7704 26.4393 80.5503 25.7175 81.1757 25.9905C81.7318 26.2357 81.9926 27.1774 82.3687 27.8205C83.1164 29.1 83.1533 29.1694 81.9464 29.9329C80.6427 30.7542 80.0473 31.7259 80.4627 33.3153C80.6486 34.1665 80.6312 35.0496 80.4119 35.8927C80.1811 36.9662 80.4396 37.8037 81.4111 38.4122C81.9926 38.7778 82.8487 39.1734 82.9595 39.687C83.0702 40.2006 82.3964 40.8716 82.0549 41.4801Z" fill="#C02D4E"/>
<path d="M34.8695 63.6282C31.5697 63.6282 28.8306 66.319 28.8098 69.5719C28.7909 70.3816 28.9359 71.1868 29.2358 71.9389C29.5358 72.6909 29.9847 73.3743 30.5553 73.9477C31.1259 74.521 31.8064 74.9726 32.5558 75.2751C33.3052 75.5775 34.108 75.7247 34.9157 75.7076C38.3586 75.6798 40.9361 73.0423 40.9154 69.5673C40.8899 67.9788 40.2409 66.4645 39.1091 65.3527C37.9773 64.241 36.454 63.6213 34.8695 63.6282ZM34.8511 72.2788C34.17 72.2622 33.5217 71.9828 33.041 71.4988C32.5604 71.0148 32.2846 70.3635 32.2712 69.6806C32.271 69.3342 32.3403 68.9913 32.475 68.6724C32.6098 68.3534 32.8071 68.0648 33.0554 67.8239C33.3036 67.583 33.5977 67.3947 33.9201 67.2701C34.2424 67.1455 34.5865 67.0872 34.9318 67.0986C35.2703 67.1006 35.605 67.1705 35.9161 67.3041C36.2273 67.4377 36.5086 67.6324 36.7436 67.8766C36.9787 68.1209 37.1626 68.4098 37.2846 68.7263C37.4066 69.0429 37.4642 69.3807 37.454 69.72C37.4413 70.4034 37.1614 71.0546 36.6745 71.5332C36.1877 72.0118 35.5329 72.2795 34.8511 72.2788Z" fill="#C02D4E"/>
<path d="M51.0133 73.0006C50.3787 72.5078 49.7188 72.0428 49.068 71.5662C48.9459 71.496 48.8441 71.3951 48.7729 71.2733C48.7017 71.1516 48.6634 71.0132 48.6619 70.8721C48.5811 68.1791 48.5696 68.1814 50.7572 66.548C50.8264 66.4971 50.898 66.4485 50.9649 66.3953C51.8994 65.6665 52.0748 64.8775 51.4795 63.8272C50.4026 61.9269 49.3096 60.0352 48.2004 58.1519C47.6212 57.1663 46.8528 56.9326 45.7774 57.3745C45.0344 57.683 44.2975 58.0038 43.5668 58.337C43.2806 58.4665 43.0476 58.5128 42.7707 58.3023C42.0576 57.7632 40.9915 57.5619 40.5323 56.9141C40.0731 56.2663 40.2139 55.202 40.0939 54.3182C40.0939 54.2627 40.08 54.2049 40.0708 54.147C39.9 52.8699 39.3508 52.3633 38.0955 52.3586C35.9418 52.3494 33.7811 52.3494 31.6135 52.3586C30.3951 52.3586 29.7813 52.9486 29.6567 54.1794C29.5805 54.9244 29.5044 55.6694 29.4098 56.4144C29.4042 56.5512 29.3674 56.6849 29.3022 56.8053C29.237 56.9256 29.1451 57.0293 29.0336 57.1085C27.4645 58.2653 25.8838 58.728 24.1693 57.43C24.0699 57.3712 23.9627 57.3268 23.8508 57.2982C22.877 56.9396 22.0901 57.1848 21.5594 58.0894C20.421 60.0221 19.3026 61.9663 18.2042 63.922C17.6642 64.8845 17.8534 65.6526 18.7441 66.3421C19.381 66.8349 20.0456 67.293 20.6894 67.7788C21.1233 68.105 21.2063 71.1035 20.7979 71.4551C20.7125 71.5292 20.6133 71.5893 20.5187 71.6587C19.9164 72.1006 19.3026 72.531 18.7118 72.989C17.8673 73.6484 17.6688 74.4327 18.1811 75.3466C19.2933 77.3271 20.4271 79.2952 21.5825 81.2509C22.1109 82.1463 22.9047 82.3846 23.89 81.989C24.6608 81.679 25.4177 81.3273 26.1815 80.9964C26.2882 80.9297 26.4102 80.8914 26.5358 80.8853C26.6614 80.8793 26.7865 80.9056 26.8991 80.9617C29.389 82.2458 29.3913 82.2388 29.6682 85.0823C29.6682 85.11 29.6682 85.1401 29.6682 85.1679C29.7951 86.3709 30.4343 86.9702 31.6527 86.9794C33.3811 86.991 35.1141 86.9794 36.8402 86.9794C39.7962 86.9794 39.9969 86.8128 40.2231 83.8537C40.2969 82.889 40.4538 82.0676 41.5592 81.7715C41.8837 81.6739 42.1819 81.5039 42.4314 81.2741C42.9114 80.8345 43.3545 80.8923 43.9106 81.1468C44.7921 81.5517 45.6413 82.0584 46.4351 82.1833C47.3327 82.1833 47.8196 81.8548 48.175 81.2579C49.2988 79.3168 50.4318 77.3826 51.5348 75.4299C52.0702 74.4836 51.881 73.6762 51.0133 73.0006ZM45.0944 67.9662C45.3171 69.0744 45.3218 70.2156 45.1082 71.3256C44.9075 72.3505 45.2144 73.1094 46.0913 73.697C46.682 74.0926 47.5958 74.4189 47.6904 75.025C47.7735 75.5618 47.1066 76.2165 46.7674 76.8158C45.9297 78.271 45.8928 78.3404 44.3929 77.5839C43.1491 76.9546 42.1361 76.9893 41.1046 77.9795C40.4477 78.5914 39.6576 79.0413 38.797 79.2936C37.6248 79.6545 37.0432 80.3787 36.9948 81.6072C36.9717 82.2319 37.1356 83.118 36.6994 83.4165C36.2633 83.7149 35.4256 83.5345 34.7657 83.5368C32.9196 83.5368 32.8873 83.5368 32.7927 81.7252C32.7281 80.4851 32.2366 79.6777 31.0089 79.2913C30.0237 78.96 29.1178 78.4275 28.3483 77.7273C27.566 77.0332 26.7538 76.9476 25.81 77.3965C25.1777 77.6949 24.4577 78.3474 23.8693 78.0905C23.3524 77.8592 23.117 76.9893 22.7709 76.3947C21.9424 74.9695 21.8986 74.8931 23.2578 74.0302C24.5108 73.232 24.9308 72.251 24.5916 70.8212C24.4142 69.9106 24.4347 68.9723 24.6515 68.0703C24.8615 67.0199 24.5431 66.231 23.627 65.6318C23.0593 65.2616 22.1847 64.9539 22.1086 64.35C22.0417 63.8202 22.6509 63.1932 22.9786 62.6241C23.8554 61.0879 23.8854 61.037 25.48 61.8352C26.6661 62.4321 27.6376 62.3673 28.6206 61.4418C29.353 60.786 30.2192 60.298 31.1589 60.012C32.1973 59.6719 32.7073 58.9917 32.7742 57.9182C32.8111 57.2357 32.6588 56.2987 33.1088 55.9632C33.5588 55.6278 34.4311 55.8475 35.1187 55.8452C36.7894 55.8452 36.854 55.8452 36.9648 57.5157C37.0594 58.9038 37.6132 59.7575 38.9724 60.1624C39.9416 60.4516 40.7769 61.0532 41.5407 61.7172C42.2561 62.3372 43.0037 62.4112 43.8598 62.0295C44.5313 61.7287 45.2628 61.067 45.8859 61.2776C46.5089 61.4881 46.682 62.4714 47.0858 63.0938C47.3351 63.4801 47.5473 63.8919 47.7666 64.2829C47.8358 64.5305 47.6189 64.5791 47.4989 64.6716C47.0189 65.0395 46.5412 65.4097 46.0382 65.7428C45.189 66.2726 44.9121 67.0153 45.0944 67.9662Z" fill="#C02D4E"/>
<path d="M18.9449 52.0347C18.9456 52.4851 18.77 52.9178 18.4558 53.2396C18.1417 53.5615 17.7141 53.747 17.265 53.7561C16.8011 53.7561 16.3558 53.5736 16.0248 53.2478C15.6937 52.922 15.5035 52.4789 15.4951 52.0139C15.5066 51.5496 15.7013 51.1088 16.0366 50.7882C16.3719 50.4677 16.8203 50.2936 17.2834 50.3042C17.7321 50.3145 18.1585 50.5022 18.4697 50.8264C18.7809 51.1505 18.9517 51.5849 18.9449 52.0347Z" fill="#C02D4E"/>
<path d="M70.1224 28.3434C66.6933 28.3596 64.0835 31.0086 64.095 34.4652C64.095 37.7042 66.8641 40.4319 70.1409 40.4366C71.7406 40.4384 73.276 39.8053 74.4115 38.6755C75.547 37.5457 76.1902 36.0112 76.2006 34.4073C76.1867 30.9462 73.5607 28.3249 70.1224 28.3434ZM70.1593 36.9569C69.8134 36.9595 69.4704 36.8924 69.1507 36.7597C68.8311 36.627 68.5412 36.4314 68.2983 36.1844C68.0554 35.9374 67.8644 35.6441 67.7365 35.3217C67.6087 34.9994 67.5467 34.6546 67.5541 34.3078C67.5763 33.6235 67.8638 32.9748 68.3554 32.4996C68.847 32.0244 69.5041 31.7601 70.187 31.7629C70.8668 31.775 71.5145 32.0553 71.9896 32.5429C72.4648 33.0306 72.7291 33.6863 72.7254 34.368C72.7312 34.7082 72.669 35.0462 72.5423 35.3619C72.4157 35.6776 72.2271 35.9646 71.9879 36.206C71.7487 36.4474 71.4636 36.6382 71.1495 36.7672C70.8354 36.8962 70.4987 36.9607 70.1593 36.9569Z" fill="#C02D4E"/>
<path d="M34.8695 63.6282C31.5697 63.6282 28.8306 66.319 28.8098 69.5719C28.7909 70.3816 28.9359 71.1868 29.2358 71.9389C29.5358 72.6909 29.9847 73.3743 30.5553 73.9477C31.1259 74.521 31.8064 74.9726 32.5558 75.2751C33.3052 75.5775 34.108 75.7247 34.9157 75.7076C38.3586 75.6798 40.9361 73.0423 40.9154 69.5673C40.8899 67.9788 40.2409 66.4645 39.1091 65.3527C37.9773 64.241 36.454 63.6213 34.8695 63.6282ZM34.8511 72.2788C34.17 72.2622 33.5217 71.9828 33.041 71.4988C32.5604 71.0148 32.2846 70.3635 32.2712 69.6806C32.271 69.3342 32.3403 68.9913 32.475 68.6724C32.6098 68.3534 32.8071 68.0648 33.0554 67.8239C33.3036 67.583 33.5977 67.3947 33.9201 67.2701C34.2424 67.1455 34.5865 67.0872 34.9318 67.0986C35.2703 67.1006 35.605 67.1705 35.9161 67.3041C36.2273 67.4377 36.5086 67.6324 36.7436 67.8766C36.9787 68.1209 37.1626 68.4098 37.2846 68.7263C37.4066 69.0429 37.4642 69.3807 37.454 69.72C37.4413 70.4034 37.1614 71.0546 36.6745 71.5332C36.1877 72.0118 35.5329 72.2795 34.8511 72.2788Z" fill="#C02D4E"/>
<path d="M70.1224 28.3434C66.6933 28.3596 64.0835 31.0086 64.095 34.4652C64.095 37.7042 66.8641 40.4319 70.1409 40.4366C71.7406 40.4384 73.276 39.8053 74.4115 38.6755C75.547 37.5457 76.1902 36.0112 76.2006 34.4073C76.1867 30.9462 73.5607 28.3249 70.1224 28.3434ZM70.1593 36.9569C69.8134 36.9595 69.4704 36.8924 69.1507 36.7597C68.8311 36.627 68.5412 36.4314 68.2983 36.1844C68.0554 35.9374 67.8644 35.6441 67.7365 35.3217C67.6087 34.9994 67.5467 34.6546 67.5541 34.3078C67.5763 33.6235 67.8638 32.9748 68.3554 32.4996C68.847 32.0244 69.5041 31.7601 70.187 31.7629C70.8668 31.775 71.5145 32.0553 71.9896 32.5429C72.4648 33.0306 72.7291 33.6863 72.7254 34.368C72.7312 34.7082 72.669 35.0462 72.5423 35.3619C72.4157 35.6776 72.2271 35.9646 71.9879 36.206C71.7487 36.4474 71.4636 36.6382 71.1495 36.7672C70.8354 36.8962 70.4987 36.9607 70.1593 36.9569Z" fill="#C02D4E"/>
<path d="M34.8695 63.6282C31.5697 63.6282 28.8306 66.319 28.8098 69.5719C28.7909 70.3816 28.9359 71.1868 29.2358 71.9389C29.5358 72.6909 29.9847 73.3743 30.5553 73.9477C31.1259 74.521 31.8064 74.9726 32.5558 75.2751C33.3052 75.5775 34.108 75.7247 34.9157 75.7076C38.3586 75.6798 40.9361 73.0423 40.9154 69.5673C40.8899 67.9788 40.2409 66.4645 39.1091 65.3527C37.9773 64.241 36.454 63.6213 34.8695 63.6282ZM34.8511 72.2788C34.17 72.2622 33.5217 71.9828 33.041 71.4988C32.5604 71.0148 32.2846 70.3635 32.2712 69.6806C32.271 69.3342 32.3403 68.9913 32.475 68.6724C32.6098 68.3534 32.8071 68.0648 33.0554 67.8239C33.3036 67.583 33.5977 67.3947 33.9201 67.2701C34.2424 67.1455 34.5865 67.0872 34.9318 67.0986C35.2703 67.1006 35.605 67.1705 35.9161 67.3041C36.2273 67.4377 36.5086 67.6324 36.7436 67.8766C36.9787 68.1209 37.1626 68.4098 37.2846 68.7263C37.4066 69.0429 37.4642 69.3807 37.454 69.72C37.4413 70.4034 37.1614 71.0546 36.6745 71.5332C36.1877 72.0118 35.5329 72.2795 34.8511 72.2788Z" fill="#C02D4E"/>
</g>
<defs>
<clipPath id="clip0_2_4525">
<rect width="88.5926" height="88.5926" fill="white" transform="translate(8.20312 7.70374)"/>
</clipPath>
</defs>
</svg>
