<svg width="179" height="40" viewBox="0 0 179 40" fill="none" xmlns="http://www.w3.org/2000/svg">
<g clip-path="url(#clip0_10_186)">
<path d="M45.9165 3.15546L41.4677 12.6946L54.1732 39.9399H63.0786L45.9165 3.15546ZM35.2565 27.9578C34.5796 28.1209 33.9356 28.3991 33.3529 28.7804C34.3961 27.4793 35.8431 26.5628 37.4653 26.1759L37.2125 25.1262C35.2539 25.5986 33.5219 26.7403 32.3157 28.3541C31.1095 29.9679 30.5049 31.9523 30.6064 33.9644C30.614 34.41 30.6705 34.8534 30.775 35.2866C30.7812 35.3147 30.7898 35.342 30.7969 35.3701C30.8101 35.4294 30.8234 35.4895 30.8382 35.5496H30.8444C31.1745 36.6927 31.833 37.7136 32.7381 38.4858C33.6433 39.2579 34.7553 39.7471 35.9361 39.8928C37.1169 40.0385 38.3145 39.8342 39.3802 39.3052C40.4459 38.7763 41.3328 37.946 41.9308 36.9174C42.5287 35.8888 42.8114 34.7073 42.7438 33.5194C42.6761 32.3316 42.2611 31.1898 41.5502 30.2357C40.8394 29.2817 39.864 28.5575 38.7451 28.1529C37.6262 27.7484 36.4132 27.6813 35.2565 27.9601V27.9578ZM24.0605 7.27488C23.4716 5.87645 22.4302 4.71627 21.1033 3.98034C19.7763 3.24441 18.2407 2.97537 16.7426 3.21634L16.9143 4.28248C18.0191 4.10171 19.1526 4.25302 20.1713 4.71722C19.8286 4.69695 19.4847 4.71397 19.1457 4.76795C18.1741 4.92565 17.2771 5.3864 16.5831 6.08439C15.889 6.78237 15.4333 7.68187 15.281 8.65437C15.1287 9.62688 15.2877 10.6226 15.7353 11.4993C16.1829 12.3761 16.8961 13.0889 17.773 13.536C18.65 13.9831 19.6458 14.1416 20.6182 13.9888C21.5906 13.8361 22.4899 13.3799 23.1875 12.6855C23.8852 11.991 24.3454 11.0938 24.5026 10.1221C24.6598 9.1504 24.5059 8.15386 24.0628 7.27488H24.0605ZM17.2187 16.732L7.94651 11.8758L6.44563 11.0766C5.2671 10.4887 4.67834 9.54688 4.67938 8.25127C4.67938 8.14278 4.68486 8.03741 4.69266 7.9336C4.69266 7.88912 4.68485 7.84463 4.68329 7.80014C4.64114 6.86356 5.1344 5.78493 5.78923 5.1301C6.0646 4.85836 6.38057 4.63112 6.72582 4.45654C4.71216 5.34937 3.00305 6.81077 1.80831 8.66133C0.613563 10.5119 -0.0148045 12.671 0.000360326 14.8737C-0.015903 16.8786 0.518655 18.8494 1.54573 20.5713C2.53739 22.2712 3.95191 23.6858 5.65187 24.6774L19.0763 31.6534C20.2532 32.2429 20.842 33.2144 20.8425 34.5677C20.8425 35.5689 20.5186 36.334 19.8708 36.8632C18.7696 37.97 17.4656 38.8545 16.03 39.4684L16.3383 39.9984C17.8713 39.36 19.2657 38.4301 20.4445 37.2604C21.606 36.0933 22.5352 34.716 23.1824 33.2019C23.8618 31.6269 24.2072 29.9282 24.197 28.213C24.197 25.6822 23.5495 23.4008 22.2544 21.3689C20.9593 19.3371 19.2808 17.7912 17.2187 16.7313V16.732Z" fill="url(#paint0_linear_10_186)"/>
<path d="M78.1154 14.5279C78.1154 13.9753 78.3145 13.7981 78.7788 13.9753C79.8185 14.3515 81.0345 14.5505 82.4471 14.5505C84.7246 14.5505 85.7416 14.0635 85.7416 12.6703C85.7416 11.6089 85.189 11.1008 83.7076 10.1938L80.4343 8.18175C78.9747 7.2972 78.245 6.12516 78.245 4.66565C78.245 2.38818 79.7708 1.39307 82.867 1.39307C84.172 1.39307 85.2777 1.56997 86.1841 1.92379C86.7148 2.12282 86.8475 2.21101 86.8475 2.74174V3.02897C86.8475 3.58233 86.6485 3.73686 86.1841 3.55969C85.2335 3.20587 84.1278 3.02897 82.867 3.02897C80.8323 3.02897 80.0144 3.51599 80.0144 4.73199C80.0144 5.68262 80.4787 6.12516 81.562 6.83306L84.9017 8.9115C86.604 9.97297 87.4883 10.8791 87.4883 12.6485C87.4883 15.0149 85.786 16.1864 82.4026 16.1864C80.9879 16.1864 79.7937 16.0095 78.8202 15.6557C78.3339 15.4567 78.1123 15.3903 78.1123 14.8377L78.1154 14.5279Z" fill="black"/>
<path d="M89.5713 11.5449V9.48834C89.5713 6.39292 91.1853 4.84521 94.4361 4.84521C97.864 4.84521 99.2571 6.45926 99.2571 9.48834V11.5449C99.2571 14.6411 97.6431 16.1888 94.4361 16.1888C90.9863 16.1865 89.5713 14.5724 89.5713 11.5449ZM97.6009 9.48599C97.6009 7.36307 96.8485 6.41243 94.4384 6.41243C91.9838 6.41243 91.2322 7.36307 91.2322 9.48599V11.5449C91.2322 13.6678 92.0283 14.6193 94.4384 14.6193C96.8485 14.6193 97.6009 13.6655 97.6009 11.5449V9.48599Z" fill="black"/>
<path d="M100.65 5.92541C100.65 5.41653 100.783 5.30648 101.247 5.24014L102.508 5.06297V3.42394C102.508 1.14648 103.747 -0.00317383 106.223 -0.00317383C106.788 0.00439004 107.35 0.0636966 107.904 0.173998C108.457 0.284047 108.59 0.416726 108.59 0.969311V1.16834C108.59 1.7217 108.433 1.85439 107.904 1.74356C107.374 1.62749 106.832 1.5681 106.289 1.56639C104.874 1.56639 104.167 2.14161 104.167 3.3139V5.06687H107.661C108.213 5.06687 108.346 5.19956 108.346 5.75214V5.95116C108.346 6.50375 108.213 6.63721 107.661 6.63721H104.167V15.2608C104.167 15.8579 104.01 15.9687 103.459 15.9687H103.216C102.619 15.9687 102.508 15.8579 102.508 15.2608V6.63409H101.247C100.739 6.63409 100.65 6.54512 100.65 6.03702V5.92541Z" fill="black"/>
<path d="M108.987 5.92545C108.987 5.41657 109.12 5.30652 109.584 5.24018L110.845 5.06301L111.088 2.78555C111.11 2.31726 111.244 2.18848 111.752 2.18848H111.908C112.372 2.18848 112.505 2.32116 112.505 2.78555V5.06692H116.087C116.64 5.06692 116.773 5.1996 116.773 5.75219V5.95121C116.773 6.50379 116.64 6.63726 116.087 6.63726H112.505V12.2568C112.505 13.9598 113.213 14.5982 114.54 14.5982C115.313 14.5982 115.977 14.5319 116.507 14.3774C117.016 14.2665 117.171 14.3992 117.171 14.9526V15.1516C117.171 15.5934 117.038 15.7924 116.485 15.9477C115.856 16.1023 115.21 16.1766 114.562 16.1686C112.085 16.1686 110.847 14.8639 110.846 12.2544V6.63491H109.586C109.078 6.63491 108.989 6.54594 108.989 6.03784L108.987 5.92545Z" fill="black"/>
<path d="M121.371 13.5111C121.481 14.3954 121.813 14.7271 122.433 14.7271C123.053 14.7271 123.383 14.3954 123.494 13.5111L124.489 7.20864C124.732 5.63908 125.241 5.06386 126.568 5.06386C127.828 5.06386 128.381 5.61644 128.646 7.20864L129.641 13.5111C129.752 14.3954 130.084 14.7271 130.703 14.7271C131.3 14.7271 131.654 14.329 131.764 13.5111L132.98 5.76942C133.069 5.21606 133.202 5.06152 133.799 5.06152H134.086C134.639 5.06152 134.772 5.17235 134.683 5.76942L133.467 13.3979C133.136 15.3663 132.472 16.1842 130.703 16.1842C129.089 16.1842 128.403 15.3663 128.116 13.3979L127.253 7.64883C127.143 6.6982 126.988 6.4781 126.568 6.4781C126.148 6.4781 125.971 6.74347 125.86 7.64883L125.001 13.3979C124.714 15.3663 124.051 16.1842 122.437 16.1842C120.667 16.1842 120.004 15.4108 119.672 13.3979L118.478 5.76942C118.39 5.17235 118.523 5.06152 119.075 5.06152H119.341C119.938 5.06152 120.07 5.21762 120.159 5.76942L121.371 13.5111Z" fill="black"/>
<path d="M145.034 12.693C145.034 15.1476 143.596 16.1864 140.412 16.1864C137.869 16.1864 136.254 15.1718 136.254 12.8694C136.254 10.5669 137.758 9.64127 140.765 9.64127H143.375V8.31444C143.375 6.81044 142.36 6.30156 140.478 6.30156C139.505 6.30156 138.687 6.39053 138.045 6.54507C137.514 6.6559 137.338 6.52322 137.338 5.99249V5.81532C137.338 5.30722 137.471 5.17454 138.001 5.06371C138.788 4.90747 139.588 4.83345 140.39 4.84283C143.485 4.84283 145.034 5.99249 145.034 8.31444V12.693ZM143.375 10.9462H140.788C138.819 10.9462 137.912 11.477 137.912 12.8694C137.912 14.1299 138.731 14.7496 140.39 14.7496C142.424 14.7496 143.375 14.2813 143.375 12.6266V10.9462Z" fill="black"/>
<path d="M149.08 15.2578C149.08 15.8549 148.97 15.9657 148.372 15.9657H148.129C147.576 15.9657 147.422 15.8549 147.422 15.2578V8.66814C147.422 6.12531 148.682 4.84375 151.203 4.84375C151.44 4.84535 151.676 4.85993 151.91 4.88745C152.464 4.95379 152.574 5.10911 152.574 5.6617V5.88257C152.574 6.43594 152.441 6.54599 151.889 6.45779C151.623 6.43594 151.402 6.41331 151.203 6.41331C149.611 6.41331 149.08 7.1657 149.08 8.75477V15.2578Z" fill="black"/>
<path d="M162.636 10.4594C162.57 11.0127 162.437 11.1454 161.84 11.1454H155.162V11.808C155.162 13.8209 156.157 14.6178 158.611 14.6178C159.628 14.615 160.64 14.4735 161.619 14.1971C162.15 14.041 162.326 14.2197 162.326 14.7723V14.9714C162.326 15.4358 162.238 15.5903 161.641 15.7675C160.657 16.0552 159.636 16.1966 158.611 16.1874C155.14 16.1874 153.503 14.8387 153.503 11.5661V9.50951C153.503 6.38756 155.051 4.84375 158.169 4.84375C161.088 4.84375 162.703 6.34697 162.703 9.266C162.709 9.66487 162.687 10.0637 162.636 10.4594ZM155.162 9.7499H161.133V9.02014C161.133 7.22502 160.138 6.32199 158.148 6.32199C156.157 6.32199 155.163 7.22892 155.163 9.02014L155.162 9.7499Z" fill="black"/>
<path d="M90.3195 38.9884C90.4756 39.5418 90.3632 39.7181 89.7669 39.7181H89.5452C88.9482 39.7181 88.7491 39.5855 88.5946 38.9884L87.555 35.2717H80.9435L79.9288 38.986C79.7728 39.5831 79.5753 39.7158 78.9782 39.7158H78.7347C78.1376 39.7158 78.0276 39.5394 78.1821 38.986L81.148 28.394C81.5015 27.1336 81.8777 26.2711 82.2758 25.8294C82.6957 25.3611 83.3591 25.1433 84.266 25.1433C85.1729 25.1433 85.8356 25.365 86.2336 25.8294C86.6543 26.2711 87.0297 27.1336 87.3614 28.394L90.3195 38.9884ZM81.3665 33.7037H87.1382L85.6123 28.1974C85.2806 26.9814 84.9934 26.6934 84.2637 26.6934C83.4894 26.6934 83.224 26.9814 82.8923 28.1974L81.3665 33.7037Z" fill="black"/>
<path d="M96.6641 24.9467C96.6641 24.3496 96.7749 24.2388 97.3712 24.2388H97.6147C98.1681 24.2388 98.3226 24.3496 98.3226 24.9467V36.5986C98.3226 37.7264 98.6988 38.2797 99.4504 38.2797H99.5604C100.114 38.2797 100.246 38.3235 100.246 38.8542V39.0103C100.246 39.5629 100.136 39.74 99.6268 39.8282C99.4953 39.8477 99.3623 39.855 99.2295 39.8501C97.7037 39.8501 96.6641 38.9439 96.6641 36.8842V24.9467Z" fill="black"/>
<path d="M106.329 24.9467C106.329 24.3496 106.44 24.2388 107.037 24.2388H107.279C107.832 24.2388 107.987 24.3496 107.987 24.9467V36.5986C107.987 37.7264 108.363 38.2797 109.115 38.2797H109.23C109.783 38.2797 109.915 38.3235 109.915 38.8542V39.0103C109.915 39.5629 109.805 39.74 109.297 39.8282C109.165 39.8477 109.032 39.855 108.898 39.8501C107.373 39.8501 106.333 38.9439 106.333 36.8842L106.329 24.9467Z" fill="black"/>
<path d="M118.116 25.411C118.117 25.5509 118.091 25.6897 118.038 25.8193C117.986 25.9489 117.908 26.0666 117.809 26.1656C117.71 26.2645 117.592 26.3426 117.462 26.3953C117.333 26.448 117.194 26.4743 117.054 26.4725C116.434 26.4725 115.948 26.0042 115.948 25.411C115.949 25.2672 115.979 25.125 116.035 24.9927C116.092 24.8603 116.174 24.7404 116.276 24.6397C116.379 24.5391 116.501 24.4597 116.634 24.4062C116.768 24.3526 116.91 24.326 117.054 24.3277C117.195 24.3284 117.335 24.3571 117.465 24.412C117.595 24.467 117.712 24.5472 117.811 24.6479C117.91 24.7487 117.987 24.868 118.04 24.999C118.092 25.1299 118.118 25.27 118.116 25.411ZM116.214 29.5242C116.214 28.9716 116.324 28.8163 116.921 28.8163H117.164C117.717 28.8163 117.872 28.9724 117.872 29.5242V39.011C117.872 39.6081 117.716 39.7182 117.164 39.7182H116.921C116.324 39.7182 116.214 39.6081 116.214 39.011V29.5242Z" fill="black"/>
<path d="M133.462 36.4425C133.462 38.8971 132.024 39.9367 128.839 39.9367C126.297 39.9367 124.683 38.9221 124.683 36.6197C124.683 34.3172 126.186 33.3908 129.194 33.3908H131.803V32.064C131.803 30.5607 130.788 30.0519 128.906 30.0519C127.933 30.0519 127.115 30.14 126.474 30.2954C125.943 30.4054 125.766 30.2727 125.766 29.742V29.5656C125.766 29.0567 125.899 28.924 126.429 28.8132C127.216 28.657 128.016 28.583 128.818 28.5923C131.914 28.5923 133.462 29.742 133.462 32.064V36.4425ZM131.803 34.6958H129.216C127.247 34.6958 126.341 35.2265 126.341 36.6197C126.341 37.8801 127.159 38.4991 128.818 38.4991C130.852 38.4991 131.803 38.0308 131.803 36.3761V34.6958Z" fill="black"/>
<path d="M141.933 39.0112C141.933 39.6082 141.822 39.7183 141.225 39.7183H140.982C140.429 39.7183 140.274 39.6082 140.274 39.0112V32.7306C140.274 29.9669 141.822 28.594 144.896 28.594C148.146 28.594 149.496 30.0535 149.496 32.7306V39.0112C149.496 39.6082 149.385 39.7183 148.788 39.7183H148.523C147.926 39.7183 147.815 39.6082 147.815 39.0112V32.7306C147.815 30.9612 147.129 30.1659 144.896 30.1659C142.662 30.1659 141.93 30.9838 141.93 32.7306L141.933 39.0112Z" fill="black"/>
<path d="M156.305 33.173C156.305 30.2759 157.874 28.5955 161.236 28.5955C161.966 28.5955 162.606 28.6837 163.182 28.8827C163.712 29.0599 163.845 29.2144 163.845 29.7233V29.9441C163.845 30.4975 163.712 30.6521 163.182 30.4749C162.57 30.262 161.927 30.1564 161.279 30.1627C158.803 30.1627 157.963 31.1352 157.963 33.1918V35.3365C157.963 37.5703 158.958 38.3664 161.412 38.3664C162.165 38.3664 162.828 38.2782 163.402 38.0792C163.911 37.902 164.066 38.0792 164.066 38.6318V38.8526C164.066 39.317 163.91 39.4942 163.359 39.6495C162.692 39.8511 161.998 39.948 161.302 39.9367C157.919 39.9367 156.307 38.4772 156.307 35.3592L156.305 33.173Z" fill="black"/>
<path d="M178.794 34.212C178.727 34.7654 178.595 34.898 177.998 34.898H171.32V35.5615C171.32 37.5736 172.314 38.3712 174.769 38.3712C175.786 38.3683 176.798 38.227 177.777 37.9513C178.307 37.7952 178.484 37.9732 178.484 38.5258V38.7248C178.484 39.1931 178.396 39.3445 177.798 39.5209C176.815 39.8092 175.794 39.951 174.769 39.9416C171.297 39.9416 169.661 38.5921 169.661 35.3195V33.2629C169.661 30.141 171.209 28.5972 174.327 28.5972C177.246 28.5972 178.86 30.1012 178.86 33.0202C178.867 33.4185 178.844 33.8169 178.794 34.212ZM171.32 33.5049H177.289V32.7743C177.289 30.9792 176.294 30.0762 174.303 30.0762C172.313 30.0762 171.319 30.9831 171.319 32.7743L171.32 33.5049Z" fill="black"/>
</g>
<defs>
<linearGradient id="paint0_linear_10_186" x1="-0.00120065" y1="21.5633" x2="63.0794" y2="21.5633" gradientUnits="userSpaceOnUse">
<stop stop-color="#D1232A"/>
<stop offset="0.15" stop-color="#C02D4E"/>
<stop offset="0.36" stop-color="#AB397E"/>
<stop offset="0.47" stop-color="#A23E90"/>
<stop offset="0.58" stop-color="#903C8F"/>
<stop offset="0.8" stop-color="#60368B"/>
<stop offset="1" stop-color="#303187"/>
</linearGradient>
<clipPath id="clip0_10_186">
<rect width="178.86" height="40" fill="white"/>
</clipPath>
</defs>
</svg>
