<svg width="224" height="50" viewBox="0 0 224 50" fill="none" xmlns="http://www.w3.org/2000/svg">
<g clip-path="url(#clip0_61_67)">
<path d="M57.3965 3.94445L51.8356 15.8683L67.7175 49.9249H78.8492L57.3965 3.94445ZM44.0717 34.9474C43.2254 35.1512 42.4205 35.499 41.6922 35.9757C42.9961 34.3492 44.8049 33.2037 46.8326 32.7201L46.5165 31.4079C44.0684 31.9984 41.9034 33.4256 40.3956 35.4428C38.8879 37.46 38.1321 39.9405 38.259 42.4557C38.2685 43.0126 38.3392 43.5668 38.4697 44.1083C38.4775 44.1435 38.4883 44.1776 38.497 44.2127C38.5136 44.2869 38.5302 44.362 38.5487 44.4371H38.5565C38.9691 45.866 39.7922 47.1422 40.9237 48.1073C42.0551 49.0725 43.4451 49.6841 44.9212 49.8662C46.3972 50.0483 47.8941 49.7929 49.2263 49.1316C50.5584 48.4704 51.667 47.4326 52.4144 46.1468C53.1619 44.8611 53.5153 43.3842 53.4307 41.8994C53.3461 40.4146 52.8274 38.9873 51.9388 37.7948C51.0502 36.6023 49.8309 35.697 48.4323 35.1913C47.0338 34.6856 45.5174 34.6018 44.0717 34.9503V34.9474ZM30.0765 9.09372C29.3405 7.34569 28.0387 5.89546 26.38 4.97554C24.7214 4.05563 22.8018 3.71933 20.9292 4.02055L21.1439 5.35322C22.5248 5.12727 23.9417 5.3164 25.2151 5.89664C24.7867 5.87131 24.3569 5.89258 23.9331 5.96006C22.7186 6.15718 21.5974 6.73312 20.7298 7.6056C19.8622 8.47809 19.2925 9.60246 19.1022 10.8181C18.9119 12.0337 19.1107 13.2784 19.6701 14.3743C20.2296 15.4702 21.1211 16.3612 22.2172 16.9201C23.3134 17.479 24.5582 17.6771 25.7737 17.4862C26.9893 17.2952 28.1134 16.725 28.9854 15.8569C29.8574 14.9889 30.4328 13.8674 30.6293 12.6528C30.8258 11.4381 30.6333 10.1924 30.0795 9.09372H30.0765ZM21.5244 20.9152L9.93411 14.8449L8.05802 13.8459C6.58485 13.111 5.8489 11.9337 5.8502 10.3142C5.8502 10.1786 5.85705 10.0469 5.8668 9.91713C5.8668 9.86152 5.85704 9.80591 5.85508 9.7503C5.8024 8.57957 6.41898 7.23128 7.23752 6.41275C7.58172 6.07307 7.97669 5.78902 8.40825 5.57079C5.89117 6.68683 3.75479 8.51359 2.26136 10.8268C0.76793 13.14 -0.0175291 15.8389 0.00142697 18.5923C-0.0189022 21.0983 0.649296 23.5619 1.93314 25.7142C3.17271 27.8391 4.94086 29.6073 7.06581 30.8469L23.8463 39.5669C25.3175 40.3038 26.0535 41.5181 26.0541 43.2098C26.0541 44.4612 25.6492 45.4176 24.8395 46.0791C23.463 47.4626 21.833 48.5683 20.0385 49.3357L20.4239 49.9981C22.3401 49.2001 24.0832 48.0378 25.5565 46.5757C27.0085 45.1168 28.17 43.3951 28.979 41.5025C29.8282 39.5338 30.26 37.4104 30.2473 35.2664C30.2473 32.1028 29.4378 29.2511 27.819 26.7113C26.2001 24.1714 24.1019 22.2391 21.5244 20.9142V20.9152Z" fill="white"/>
<path d="M97.6445 18.1602C97.6445 17.4695 97.8933 17.248 98.4738 17.4695C99.7733 17.9397 101.293 18.1885 103.059 18.1885C105.906 18.1885 107.177 17.5797 107.177 15.8383C107.177 14.5115 106.486 13.8763 104.635 12.7427L100.543 10.2276C98.7187 9.12186 97.8065 7.65682 97.8065 5.83242C97.8065 2.9856 99.7138 1.7417 103.584 1.7417C105.215 1.7417 106.597 1.96283 107.73 2.40511C108.394 2.65389 108.56 2.76413 108.56 3.42754V3.78657C108.56 4.47828 108.311 4.67144 107.73 4.44998C106.542 4.0077 105.16 3.78657 103.584 3.78657C101.041 3.78657 100.018 4.39535 100.018 5.91535C100.018 7.10364 100.599 7.65682 101.953 8.5417L106.127 11.1397C108.255 12.4666 109.361 13.5993 109.361 15.811C109.361 18.769 107.233 20.2334 103.004 20.2334C101.235 20.2334 99.7424 20.0123 98.5255 19.57C97.9177 19.3212 97.6406 19.2383 97.6406 18.5475L97.6445 18.1602Z" fill="white"/>
<path d="M111.964 14.4313V11.8605C111.964 7.99127 113.981 6.05664 118.045 6.05664C122.33 6.05664 124.071 8.0742 124.071 11.8605V14.4313C124.071 18.3015 122.054 20.2362 118.045 20.2362C113.733 20.2332 111.964 18.2157 111.964 14.4313ZM122.001 11.8576C122.001 9.20395 121.06 8.01566 118.048 8.01566C114.979 8.01566 114.04 9.20395 114.04 11.8576V14.4313C114.04 17.0849 115.035 18.2742 118.048 18.2742C121.06 18.2742 122.001 17.082 122.001 14.4313V11.8576Z" fill="white"/>
<path d="M125.812 7.40682C125.812 6.77072 125.978 6.63316 126.559 6.55023L128.134 6.32877V4.27999C128.134 1.43316 129.683 -0.00390625 132.778 -0.00390625C133.484 0.00554859 134.188 0.0796818 134.88 0.217559C135.571 0.35512 135.736 0.520968 135.736 1.2117V1.46048C135.736 2.15219 135.541 2.31805 134.88 2.17951C134.217 2.03442 133.54 1.96018 132.861 1.95804C131.092 1.95804 130.208 2.67707 130.208 4.14244V6.33365H134.575C135.266 6.33365 135.432 6.49951 135.432 7.19024V7.43901C135.432 8.12974 135.266 8.29658 134.575 8.29658H130.208V19.0761C130.208 19.8224 130.013 19.961 129.324 19.961H129.019C128.273 19.961 128.134 19.8224 128.134 19.0761V8.29267H126.559C125.924 8.29267 125.812 8.18146 125.812 7.54634V7.40682Z" fill="white"/>
<path d="M136.234 7.40706C136.234 6.77096 136.4 6.6334 136.981 6.55047L138.556 6.32901L138.861 3.48218C138.888 2.89682 139.056 2.73584 139.69 2.73584H139.885C140.466 2.73584 140.631 2.9017 140.631 3.48218V6.33389H145.109C145.8 6.33389 145.966 6.49975 145.966 7.19048V7.43925C145.966 8.12998 145.8 8.29682 145.109 8.29682H140.631V15.3212C140.631 17.45 141.516 18.248 143.175 18.248C144.142 18.248 144.971 18.1651 145.634 17.9719C146.27 17.8334 146.464 17.9993 146.464 18.691V18.9397C146.464 19.4919 146.298 19.7407 145.607 19.9349C144.82 20.1282 144.012 20.2209 143.202 20.211C140.107 20.211 138.559 18.5801 138.558 15.3183V8.29389H136.983C136.348 8.29389 136.236 8.18266 136.236 7.54754L136.234 7.40706Z" fill="white"/>
<path d="M151.714 16.8886C151.852 17.994 152.266 18.4086 153.041 18.4086C153.816 18.4086 154.229 17.994 154.368 16.8886L155.612 9.01055C155.915 7.0486 156.551 6.32958 158.21 6.32958C159.785 6.32958 160.476 7.02031 160.808 9.01055L162.052 16.8886C162.19 17.994 162.605 18.4086 163.379 18.4086C164.125 18.4086 164.567 17.911 164.705 16.8886L166.225 7.21153C166.337 6.51983 166.503 6.32666 167.249 6.32666H167.608C168.299 6.32666 168.464 6.46519 168.354 7.21153L166.834 16.7471C166.42 19.2076 165.59 20.2301 163.379 20.2301C161.361 20.2301 160.504 19.2076 160.144 16.7471L159.066 9.5608C158.929 8.3725 158.735 8.09738 158.21 8.09738C157.685 8.09738 157.463 8.42909 157.325 9.5608L156.252 16.7471C155.893 19.2076 155.063 20.2301 153.046 20.2301C150.834 20.2301 150.005 19.2632 149.59 16.7471L148.098 7.21153C147.987 6.46519 148.153 6.32666 148.844 6.32666H149.176C149.922 6.32666 150.088 6.52178 150.198 7.21153L151.714 16.8886Z" fill="white"/>
<path d="M181.292 15.8664C181.292 18.9347 179.495 20.2332 175.514 20.2332C172.336 20.2332 170.317 18.9649 170.317 16.0869C170.317 13.2088 172.197 12.0518 175.956 12.0518H179.219V10.3932C179.219 8.51323 177.951 7.87713 175.597 7.87713C174.381 7.87713 173.358 7.98835 172.556 8.18152C171.893 8.32006 171.672 8.15421 171.672 7.4908V7.26933C171.672 6.63421 171.838 6.46835 172.502 6.32982C173.485 6.13452 174.485 6.042 175.487 6.05372C179.356 6.05372 181.292 7.49079 181.292 10.3932V15.8664ZM179.219 13.683H175.985C173.524 13.683 172.391 14.3464 172.391 16.0869C172.391 17.6625 173.414 18.4371 175.487 18.4371C178.03 18.4371 179.219 17.8518 179.219 15.7835V13.683Z" fill="white"/>
<path d="M186.351 19.0722C186.351 19.8186 186.212 19.9571 185.466 19.9571H185.161C184.471 19.9571 184.277 19.8186 184.277 19.0722V10.8352C184.277 7.65664 185.853 6.05469 189.004 6.05469C189.3 6.05668 189.595 6.07491 189.888 6.10932C190.58 6.19224 190.717 6.38639 190.717 7.07712V7.35322C190.717 8.04493 190.551 8.18249 189.861 8.07224C189.529 8.04492 189.253 8.01664 189.004 8.01664C187.014 8.01664 186.351 8.95713 186.351 10.9435V19.0722Z" fill="white"/>
<path d="M203.294 13.0742C203.212 13.7659 203.046 13.9318 202.299 13.9318H193.952V14.7601C193.952 17.2761 195.196 18.2722 198.263 18.2722C199.535 18.2687 200.8 18.0918 202.023 17.7464C202.687 17.5513 202.907 17.7747 202.907 18.4654V18.7142C202.907 19.2947 202.797 19.4879 202.051 19.7093C200.821 20.0689 199.545 20.2458 198.263 20.2342C193.924 20.2342 191.878 18.5483 191.878 14.4576V11.8869C191.878 7.98445 193.813 6.05469 197.711 6.05469C201.36 6.05469 203.377 7.93372 203.377 11.5825C203.386 12.0811 203.358 12.5796 203.294 13.0742ZM193.952 12.1874H201.415V11.2752C201.415 9.03127 200.172 7.90249 197.684 7.90249C195.196 7.90249 193.953 9.03615 193.953 11.2752L193.952 12.1874Z" fill="white"/>
<path d="M112.9 48.7355C113.095 49.4272 112.954 49.6477 112.209 49.6477H111.932C111.186 49.6477 110.937 49.4819 110.744 48.7355L109.444 44.0897H101.18L99.9115 48.7326C99.7164 49.479 99.4696 49.6448 98.7232 49.6448H98.4188C97.6725 49.6448 97.535 49.4243 97.7281 48.7326L101.435 35.4926C101.877 33.917 102.348 32.839 102.845 32.2868C103.37 31.7014 104.199 31.4292 105.333 31.4292C106.467 31.4292 107.295 31.7063 107.793 32.2868C108.318 32.839 108.788 33.917 109.202 35.4926L112.9 48.7355ZM101.709 42.1297H108.923L107.016 35.2468C106.601 33.7268 106.242 33.3668 105.33 33.3668C104.362 33.3668 104.031 33.7268 103.616 35.2468L101.709 42.1297Z" fill="white"/>
<path d="M120.83 31.1832C120.83 30.4369 120.969 30.2983 121.714 30.2983H122.018C122.71 30.2983 122.903 30.4369 122.903 31.1832V45.7481C122.903 47.1579 123.374 47.8496 124.313 47.8496H124.451C125.142 47.8496 125.308 47.9042 125.308 48.5676V48.7627C125.308 49.4535 125.17 49.6749 124.533 49.7852C124.369 49.8095 124.203 49.8186 124.037 49.8125C122.13 49.8125 120.83 48.6798 120.83 46.1052V31.1832Z" fill="white"/>
<path d="M132.911 31.1832C132.911 30.4369 133.05 30.2983 133.796 30.2983H134.098C134.79 30.2983 134.983 30.4369 134.983 31.1832V45.7481C134.983 47.1578 135.454 47.8496 136.393 47.8496H136.537C137.228 47.8496 137.394 47.9042 137.394 48.5676V48.7627C137.394 49.4535 137.256 49.6749 136.62 49.7852C136.456 49.8095 136.289 49.8186 136.123 49.8125C134.216 49.8125 132.916 48.6798 132.916 46.1052L132.911 31.1832Z" fill="white"/>
<path d="M147.645 31.7639C147.647 31.9388 147.614 32.1123 147.548 32.2743C147.482 32.4363 147.385 32.5834 147.261 32.7071C147.137 32.8307 146.99 32.9284 146.828 32.9943C146.666 33.0602 146.493 33.093 146.318 33.0907C145.543 33.0907 144.936 32.5054 144.936 31.7639C144.937 31.5841 144.974 31.4064 145.044 31.241C145.115 31.0755 145.217 30.9256 145.346 30.7998C145.474 30.674 145.626 30.5748 145.793 30.5078C145.96 30.4409 146.138 30.4076 146.318 30.4098C146.494 30.4107 146.669 30.4465 146.831 30.5152C146.993 30.5839 147.141 30.6841 147.264 30.81C147.387 30.936 147.484 31.0851 147.55 31.2488C147.615 31.4126 147.648 31.5876 147.645 31.7639ZM145.267 36.9054C145.267 36.2146 145.406 36.0205 146.152 36.0205H146.456C147.146 36.0205 147.34 36.2156 147.34 36.9054V48.7639C147.34 49.5103 147.145 49.6478 146.456 49.6478H146.152C145.406 49.6478 145.267 49.5103 145.267 48.7639V36.9054Z" fill="white"/>
<path d="M166.827 45.5534C166.827 48.6217 165.03 49.9212 161.05 49.9212C157.871 49.9212 155.854 48.6529 155.854 45.7749C155.854 42.8968 157.733 41.7388 161.493 41.7388H164.754V40.0802C164.754 38.2012 163.486 37.5651 161.133 37.5651C159.917 37.5651 158.894 37.6754 158.093 37.8695C157.429 38.0071 157.208 37.8412 157.208 37.1778V36.9573C157.208 36.3212 157.374 36.1554 158.037 36.0168C159.02 35.8215 160.02 35.729 161.022 35.7407C164.893 35.7407 166.827 37.1778 166.827 40.0802V45.5534ZM164.754 43.37H161.52C159.059 43.37 157.927 44.0334 157.927 45.7749C157.927 47.3505 158.949 48.1241 161.022 48.1241C163.566 48.1241 164.754 47.5388 164.754 45.4705V43.37Z" fill="white"/>
<path d="M177.416 48.7641C177.416 49.5105 177.277 49.648 176.531 49.648H176.228C175.536 49.648 175.343 49.5105 175.343 48.7641V40.9134C175.343 37.4588 177.277 35.7427 181.119 35.7427C185.183 35.7427 186.87 37.5671 186.87 40.9134V48.7641C186.87 49.5105 186.731 49.648 185.985 49.648H185.653C184.907 49.648 184.768 49.5105 184.768 48.7641V40.9134C184.768 38.7017 183.912 37.7076 181.119 37.7076C178.327 37.7076 177.412 38.73 177.412 40.9134L177.416 48.7641Z" fill="white"/>
<path d="M195.381 41.4666C195.381 37.8451 197.343 35.7446 201.545 35.7446C202.457 35.7446 203.258 35.8549 203.977 36.1037C204.64 36.3251 204.806 36.5183 204.806 37.1544V37.4305C204.806 38.1222 204.64 38.3154 203.977 38.0939C203.213 37.8279 202.408 37.6958 201.599 37.7037C198.504 37.7037 197.454 38.9193 197.454 41.49V44.171C197.454 46.9632 198.697 47.9583 201.765 47.9583C202.706 47.9583 203.535 47.848 204.253 47.5993C204.889 47.3778 205.082 47.5993 205.082 48.29V48.5661C205.082 49.1466 204.887 49.368 204.198 49.5622C203.365 49.8142 202.498 49.9353 201.628 49.9212C197.398 49.9212 195.384 48.0968 195.384 44.1993L195.381 41.4666Z" fill="white"/>
<path d="M223.492 42.7646C223.409 43.4563 223.243 43.6222 222.497 43.6222H214.149V44.4515C214.149 46.9666 215.392 47.9637 218.461 47.9637C219.732 47.96 220.997 47.7834 222.221 47.4388C222.884 47.2437 223.104 47.4661 223.104 48.1568V48.4056C223.104 48.991 222.994 49.1802 222.248 49.4007C221.018 49.7611 219.742 49.9383 218.461 49.9266C214.121 49.9266 212.076 48.2398 212.076 44.149V41.5783C212.076 37.6759 214.011 35.7461 217.908 35.7461C221.557 35.7461 223.575 37.6261 223.575 41.2749C223.583 41.7728 223.555 42.2707 223.492 42.7646ZM214.149 41.8807H221.611V40.9676C221.611 38.7237 220.367 37.5949 217.879 37.5949C215.391 37.5949 214.148 38.7285 214.148 40.9676L214.149 41.8807Z" fill="white"/>
</g>
<defs>
<clipPath id="clip0_61_67">
<rect width="223.575" height="50" fill="white"/>
</clipPath>
</defs>
</svg>
