<svg width="104" height="104" viewBox="0 0 104 104" fill="none" xmlns="http://www.w3.org/2000/svg">
<g clip-path="url(#clip0_2_4484)">
<path d="M45.4448 56.7082C46.2085 57.4822 46.2832 58.3004 45.6784 58.9252C45.0735 59.5499 44.2233 59.487 43.4643 58.7293C41.7018 56.9841 39.9486 55.2326 38.2048 53.4749C37.4574 52.7173 37.434 52.0016 38.1581 51.2673C39.9564 49.442 41.7781 47.6424 43.5764 45.8334C43.7678 45.612 44.024 45.456 44.3089 45.3874C44.5938 45.3188 44.893 45.3411 45.1645 45.4511C45.4259 45.5459 45.6518 45.7186 45.8114 45.9459C45.971 46.1732 46.0566 46.444 46.0567 46.7216C46.0964 47.2811 45.7718 47.6541 45.4168 48.0037C44.1182 49.2975 42.8477 50.6146 41.5165 51.8828C41.1101 52.2697 41.1498 52.4679 41.5305 52.8339C42.8594 54.0997 44.1463 55.4075 45.4448 56.7082Z" fill="#C02D4E"/>
<path d="M54.3991 47.2554C53.4929 50.9014 52.5758 54.5449 51.6479 58.1862C51.433 59.0254 50.8211 59.4334 50.0527 59.3308C49.3404 59.2375 48.8406 58.6314 48.8639 57.6524C49.1722 56.4262 49.5366 54.9995 49.8962 53.5705C50.4801 51.2394 51.05 48.9082 51.6455 46.5934C51.8954 45.619 52.5914 45.1667 53.4228 45.3835C54.1865 45.584 54.6186 46.3673 54.3991 47.2554Z" fill="#C02D4E"/>
<path d="M57.2461 17.4354C57.2227 18.2699 56.6342 18.7828 55.6673 18.7875C54.301 18.7875 52.9324 18.7875 51.5662 18.7875C50.2559 18.7875 48.9481 18.7875 47.6378 18.7875C46.6359 18.7875 46.038 18.228 46.0614 17.3491C46.0847 16.5146 46.671 15.9994 47.6378 15.9971C50.3143 15.9971 52.9908 15.9971 55.6673 15.9971C56.6715 15.9947 57.2694 16.5566 57.2461 17.4354Z" fill="#C02D4E"/>
<path d="M65.1377 51.2557C65.871 51.9993 65.857 52.708 65.1096 53.468C63.33 55.2707 61.5394 57.0579 59.738 58.8296C59.0584 59.4986 58.241 59.5103 57.6501 58.9252C57.0592 58.3401 57.0779 57.5265 57.7435 56.8411C59.0257 55.531 60.3009 54.2069 61.6414 52.9598C62.2043 52.4376 62.1085 52.1719 61.6134 51.6916C60.2798 50.4328 59.007 49.111 57.7108 47.8126C57.4903 47.6195 57.3361 47.3622 57.2699 47.077C57.2037 46.7917 57.2289 46.493 57.3418 46.2228C57.5753 45.6656 58.0051 45.3602 58.7665 45.3369C59.0654 45.3113 59.4111 45.5118 59.7007 45.8032C61.5223 47.6261 63.3417 49.4304 65.1377 51.2557Z" fill="#C02D4E"/>
<path d="M93.6008 61.3565C93.6008 60.494 93.2014 59.9952 92.377 59.8063C91.4428 59.5942 90.5086 59.3844 89.5744 59.1676C89.4086 59.1303 89.1564 59.107 89.1073 58.9998C88.6636 58.0673 88.2455 57.1045 87.8625 56.1348C87.8135 56.0112 88.005 55.7804 88.1101 55.6126C88.6216 54.8014 89.1494 54.0018 89.6562 53.1882C90.0719 52.5168 90.0579 51.8618 89.4857 51.2813C88.4207 50.2043 87.3495 49.1336 86.272 48.069C85.6952 47.5002 85.0436 47.4722 84.3663 47.8848C83.8313 48.1774 83.3198 48.511 82.8365 48.8826C81.9771 49.6146 81.2274 49.5819 80.1367 49.1763C78.7494 48.6751 78.2309 47.8755 78.0348 46.5398C77.612 43.6445 77.1846 43.8963 74.9099 43.9755C74.0784 44.0058 73.999 43.7098 74.0013 43.0058C74.0247 34.4722 74.0247 25.9386 74.0013 17.4051C74.011 16.4829 73.8362 15.568 73.4873 14.7141C73.1383 13.8601 72.6221 13.0842 71.969 12.4319C71.3159 11.7795 70.5389 11.2638 69.6836 10.9149C68.8282 10.566 67.9118 10.3909 66.9878 10.4C61.8918 10.4 56.795 10.4 51.6974 10.4H36.4956C32.2917 10.4 29.2859 13.4048 29.2859 17.5823C29.2859 26.9612 29.2859 36.3394 29.2859 45.7169C29.2754 45.9203 29.2754 46.1242 29.2859 46.3276C29.3256 46.6866 29.1785 46.7542 28.8375 46.7356C25.7243 46.5538 23.2323 43.3787 23.7812 40.3203C24.0477 38.7888 24.9066 37.4232 26.1727 36.5182C26.9154 35.954 27.0298 35.1871 26.5651 34.532C26.1003 33.877 25.2619 33.7511 24.4842 34.2639C24.3627 34.3432 24.2506 34.4318 24.1315 34.5204C22.7835 35.5638 21.7854 36.9917 21.2697 38.6146C20.7539 40.2376 20.7449 41.9787 21.2439 43.6068C21.7428 45.235 22.7261 46.6731 24.0633 47.7304C25.4004 48.7876 27.028 49.4138 28.7301 49.526C29.1972 49.5539 29.2953 49.6961 29.2906 50.1297C29.2719 52.5168 29.2906 54.9063 29.2766 57.2934C29.2766 57.5661 29.4494 57.9927 28.8796 57.9414C28.4709 57.9088 28.0178 58.079 27.9454 57.3843C27.8683 56.6383 27.6371 55.911 27.5063 55.1674C27.3545 54.3025 26.8967 53.7687 26.0162 53.5728C25.1942 53.3957 24.337 53.1719 23.6808 52.6754C22.2304 51.5914 21.023 51.9271 19.6894 52.9225C18.2881 53.9645 18.2507 53.8736 17.0082 52.6077C16.6813 52.2744 16.6229 52.0436 16.8985 51.6543C17.3656 50.9946 17.7766 50.2859 18.232 49.6122C18.434 49.345 18.5467 49.0212 18.5543 48.6865C18.5618 48.3519 18.4638 48.0233 18.2741 47.7473C17.6212 46.6824 17.139 45.5223 16.8448 44.3089C16.7768 43.9648 16.6026 43.6505 16.3467 43.4101C16.0908 43.1698 15.766 43.0153 15.4178 42.9685C14.5933 42.8006 13.7829 42.6048 12.9562 42.416C12.781 42.3763 12.5124 42.4603 12.5171 42.1362C12.5171 41.4369 12.412 40.7026 12.6105 40.0662C12.6876 39.8214 13.4793 39.7934 13.9487 39.6792C14.4812 39.5463 15.0161 39.4135 15.5579 39.3086C15.8628 39.2633 16.1461 39.1249 16.369 38.9125C16.5918 38.7 16.7434 38.4239 16.8027 38.122C17.1218 36.8553 17.6262 35.6425 18.2998 34.5227C18.4785 34.2557 18.5692 33.9396 18.5591 33.6186C18.5491 33.2976 18.4388 32.9878 18.2437 32.7324C17.7766 32.033 17.3305 31.3151 16.8705 30.611C16.7257 30.3896 16.5879 30.2311 16.8074 29.928C17.856 28.485 18.1877 28.4058 19.6847 29.3615C20.0514 29.5947 20.4297 29.8161 20.7824 30.0609C21.0542 30.2829 21.3915 30.4097 21.7425 30.4219C22.0935 30.4341 22.4389 30.3311 22.7255 30.1285C23.7899 29.4769 24.9499 28.9956 26.1634 28.7018C26.9248 28.52 27.3311 28.0188 27.4853 27.2589C27.7188 26.007 28.0038 24.7599 28.256 23.508C28.4545 22.5196 28.0598 21.776 27.2587 21.5988C26.4577 21.4217 25.7337 21.9042 25.5024 22.881C25.2876 23.7839 25.0976 24.6923 24.9326 25.6061C24.9271 25.7504 24.8771 25.8895 24.7893 26.0043C24.7015 26.1191 24.5802 26.2039 24.4421 26.2471C23.55 26.5152 22.6998 27.2705 21.8894 27.2332C21.079 27.1959 20.306 26.3637 19.5189 25.8788C19.3437 25.7716 19.1733 25.6643 19.0028 25.5525C18.2694 25.0862 17.6015 25.1142 16.9662 25.7576C15.9479 26.7973 14.918 27.8277 13.888 28.8557C13.2551 29.4851 13.2084 30.1565 13.6895 30.8931C14.1986 31.6702 14.6984 32.4542 15.1889 33.2452C15.301 33.4271 15.5602 33.5902 15.4224 33.8513C14.9835 34.7006 14.608 35.581 14.2991 36.4855C14.1963 36.7606 13.9558 36.7513 13.7292 36.8002C12.795 37.0054 11.8608 37.2222 10.9266 37.432C10.0998 37.6185 9.70047 38.1313 9.70982 38.9822C9.72616 40.3809 9.70982 41.7796 9.70982 43.1783C9.70982 44.2692 10.0438 44.6982 11.1111 44.9476C11.9869 45.1504 12.8651 45.3486 13.7479 45.5071C13.892 45.515 14.0302 45.5672 14.1435 45.6565C14.2568 45.7458 14.3396 45.8678 14.3808 46.0059C14.6447 46.9011 15.3991 47.7496 15.3641 48.5702C15.329 49.3908 14.4953 50.1531 14.0095 50.941C13.8857 51.1391 13.7502 51.328 13.6311 51.5261C13.2271 52.2091 13.2551 52.8525 13.8273 53.4306C14.8923 54.5061 15.9635 55.5761 17.0409 56.6406C17.5898 57.1815 18.2227 57.2258 18.872 56.8458C19.4624 56.532 20.0249 56.1686 20.5535 55.7595C21.3756 55.0601 22.0903 55.1604 23.1039 55.4914C24.5449 55.9576 25.0657 56.8155 25.2665 58.1792C25.6893 61.0325 26.0957 60.7924 28.4125 60.7201C29.1552 60.6992 29.3023 60.9066 29.3 61.6223C29.2719 70.1574 29.2665 78.691 29.2836 87.223C29.2836 91.2279 32.3431 94.2933 36.3438 94.2957C46.5359 94.2957 56.7288 94.2957 66.9224 94.2957C70.9792 94.2957 74.0177 91.2442 74.02 87.174C74.02 78.7259 74.02 70.2794 74.02 61.8344C74.02 60.7271 74.0387 59.6198 74.02 58.5149C74.02 58.0696 74.1064 57.8831 74.5899 57.9717C75.5708 58.1096 76.5053 58.4762 77.3177 59.0417C80.3539 61.3146 80.3679 65.5456 77.3177 68.026C76.4256 68.7533 76.2496 69.4736 76.7899 70.1869C77.3247 70.8863 78.2076 70.9166 79.0927 70.2406C80.465 69.2111 81.4887 67.787 82.0262 66.1597C82.5637 64.5324 82.5893 62.7799 82.0995 61.1376C81.6098 59.4954 80.6281 58.0421 79.2865 56.9732C77.9448 55.9042 76.3075 55.2708 74.5946 55.158C74.1508 55.1324 74.006 55.0438 74.0107 54.5752C74.0364 52.1602 74.0107 49.7428 74.0247 47.3254C74.0247 47.0596 73.9056 46.6866 74.4077 46.7519C74.7604 46.7962 75.2228 46.5421 75.3232 47.1995C75.4447 48.0014 75.6689 48.787 75.8184 49.5843C75.863 49.9614 76.0293 50.3139 76.2921 50.5885C76.555 50.8631 76.9002 51.0449 77.2757 51.1065C78.1001 51.286 78.9526 51.5074 79.6112 52.0017C81.0545 53.0716 82.2643 52.7756 83.6026 51.7685C85.0039 50.7195 85.0459 50.8174 86.2884 52.0599C86.6691 52.4376 86.6504 52.6893 86.3678 53.0856C85.931 53.7011 85.5714 54.3701 85.1323 54.9832C84.9001 55.2653 84.7674 55.6159 84.7548 55.9807C84.7421 56.3456 84.8502 56.7045 85.0622 57.002C85.6941 58.0078 86.1565 59.1103 86.4308 60.2656C86.634 61.1491 87.1782 61.5897 88.0377 61.7482C88.806 61.8904 89.5627 62.1002 90.3311 62.2354C90.6838 62.296 90.7982 62.4172 90.7982 62.7832C90.894 64.7041 90.908 64.7041 89.0349 65.091C88.6939 65.161 88.3553 65.2356 88.012 65.2915C87.1479 65.4361 86.6107 65.8953 86.4168 66.7835C86.223 67.6716 85.9497 68.6087 85.4056 69.3477C84.5041 70.5972 84.6465 71.6952 85.6041 72.7932C85.6554 72.8635 85.7015 72.9375 85.7419 73.0146C86.7578 74.5905 86.7438 74.5765 85.4009 75.8446C85.0646 76.1617 84.845 76.1267 84.5087 75.8959C83.8408 75.4297 83.1401 75.0194 82.4652 74.5672C82.1984 74.3639 81.8741 74.2499 81.5385 74.2416C81.203 74.2332 80.8734 74.3308 80.5968 74.5205C79.5336 75.1729 78.3754 75.6565 77.1636 75.9542C76.8187 76.0206 76.5035 76.1941 76.2632 76.4499C76.0229 76.7057 75.8697 77.0307 75.8253 77.3785C75.5778 78.6304 75.2999 79.8752 75.05 81.127C74.8468 82.1317 75.2251 82.8684 76.0169 83.0595C76.867 83.2623 77.584 82.7355 77.8175 81.7191C77.9927 80.9568 78.2449 80.1945 78.2846 79.4229C78.336 78.4695 78.9853 78.3576 79.6579 78.1455C80.3305 77.9333 80.8677 77.4718 81.559 77.3715C81.6898 77.3529 81.8486 77.5487 81.9957 77.642C82.7548 78.1245 83.5115 78.6117 84.2775 79.0849C85.1393 79.6141 85.6625 79.5628 86.3795 78.8518C87.3954 77.8494 88.3856 76.8237 89.3993 75.8213C90.0275 75.1966 90.0999 74.5252 89.6328 73.7839C89.4386 73.4269 89.2169 73.0855 88.9695 72.7629C87.9559 71.6369 87.6827 70.4737 88.6356 69.1682C88.752 68.9664 88.8311 68.7453 88.8691 68.5155C88.9033 68.3326 88.9985 68.1666 89.1394 68.0447C89.2802 67.9227 89.4582 67.8521 89.6445 67.8441C90.5787 67.6856 91.5129 67.4292 92.4471 67.2077C93.2365 67.0189 93.6148 66.5084 93.6008 65.6995C93.5868 64.2682 93.5845 62.8112 93.6008 61.3565ZM71.2268 86.8057C71.2268 89.7802 69.4962 91.496 66.5021 91.496H36.8039C33.8145 91.496 32.0815 89.7756 32.0815 86.8057V17.9716C32.0815 14.8781 33.7748 13.1974 36.8927 13.1974H66.5021C69.5009 13.1974 71.2268 14.9084 71.2268 17.8853V86.8057Z" fill="#C02D4E"/>
<path d="M20.8964 70.3828C20.8964 69.4807 21.4826 68.8163 22.2977 68.8116C22.4866 68.8162 22.6726 68.8578 22.8453 68.9343C23.018 69.0107 23.1739 69.1203 23.3041 69.257C23.4342 69.3936 23.5361 69.5545 23.6039 69.7305C23.6717 69.9065 23.704 70.0941 23.699 70.2826C23.7038 70.4785 23.6688 70.6734 23.5962 70.8555C23.5236 71.0376 23.4149 71.2032 23.2766 71.3423C23.1383 71.4814 22.9733 71.5912 22.7914 71.6651C22.6096 71.739 22.4146 71.7754 22.2183 71.7722C21.3752 71.7559 20.8988 71.2547 20.8964 70.3828Z" fill="#C02D4E"/>
<path d="M20.8964 75.9916C20.8964 75.0871 21.4639 74.4204 22.2697 74.4041C22.4591 74.4053 22.6464 74.444 22.8207 74.5179C22.995 74.5919 23.1529 74.6996 23.2852 74.8349C23.4175 74.9702 23.5215 75.1304 23.5914 75.3061C23.6612 75.4818 23.6954 75.6697 23.692 75.8587C23.6989 76.0546 23.6661 76.2498 23.5956 76.4328C23.525 76.6157 23.4181 76.7825 23.2813 76.9231C23.1446 77.0638 22.9807 77.1754 22.7997 77.2513C22.6186 77.3271 22.424 77.3657 22.2277 77.3646C21.3892 77.3576 20.9034 76.8588 20.8964 75.9916Z" fill="#C02D4E"/>
<path d="M20.8964 81.5537C20.8964 80.6539 21.4966 79.9918 22.2977 79.9965C22.4877 80.001 22.675 80.0431 22.8486 80.1204C23.0222 80.1977 23.1788 80.3086 23.3091 80.4467C23.4395 80.5849 23.541 80.7475 23.608 80.9251C23.6749 81.1027 23.7058 81.2918 23.699 81.4814C23.7019 81.6774 23.6651 81.8719 23.5908 82.0533C23.5165 82.2347 23.4062 82.3993 23.2666 82.5371C23.127 82.6749 22.9609 82.7832 22.7784 82.8553C22.5958 82.9275 22.4005 82.9621 22.2042 82.957C21.3635 82.9337 20.894 82.4325 20.8964 81.5537Z" fill="#C02D4E"/>
<path d="M80.9864 21.5895C81.1754 21.5823 81.3639 21.6142 81.54 21.6831C81.7161 21.752 81.876 21.8565 82.0098 21.99C82.1435 22.1235 82.2482 22.2831 82.3173 22.4589C82.3863 22.6347 82.4182 22.8228 82.411 23.0115C82.411 23.8414 81.7104 24.5571 80.9467 24.5477C80.183 24.5384 79.6224 23.9789 79.6131 23.149C79.6061 22.2142 80.1433 21.6012 80.9864 21.5895Z" fill="#C02D4E"/>
<path d="M80.977 27.1842C81.166 27.1758 81.3547 27.2064 81.5312 27.2742C81.7078 27.3419 81.8684 27.4454 82.0031 27.578C82.1377 27.7106 82.2435 27.8696 82.3137 28.0449C82.3838 28.2203 82.417 28.4082 82.411 28.5969C82.411 29.4268 81.7291 30.1471 80.956 30.1425C80.183 30.1378 79.6248 29.5783 79.6131 28.7438C79.6038 27.8136 80.1386 27.1982 80.977 27.1842Z" fill="#C02D4E"/>
<path d="M79.6131 34.2686C79.6131 33.3525 80.2016 32.7534 81.0517 32.772C81.2334 32.7735 81.4129 32.811 81.5799 32.8824C81.7469 32.9537 81.898 33.0575 82.0245 33.1876C82.1509 33.3178 82.2502 33.4717 82.3166 33.6404C82.3829 33.8092 82.415 33.9895 82.411 34.1707C82.411 35.0006 81.743 35.7279 80.97 35.7303C80.1432 35.7326 79.6038 35.1521 79.6131 34.2686Z" fill="#C02D4E"/>
</g>
<defs>
<clipPath id="clip0_2_4484">
<rect x="9.70703" y="10.4" width="83.8933" height="83.8933" rx="15" fill="white"/>
</clipPath>
</defs>
</svg>
