<svg width="104" height="104" viewBox="0 0 104 104" fill="none" xmlns="http://www.w3.org/2000/svg">
<g clip-path="url(#clip0_2_4604)">
<path d="M45.4589 41.2674C44.7501 40.9775 44.0224 40.747 43.3326 40.4381C43.016 40.2979 42.501 40.2647 42.5671 39.7253C42.638 39.1526 43.1152 38.9791 43.5925 38.9173C44.4264 38.808 45.1281 39.1692 45.8156 39.6041C46.5031 40.0389 47.2544 39.9225 47.682 39.3165C48.1096 38.7106 48.0033 37.9526 47.3324 37.4464C46.3054 36.6342 45.031 36.2036 43.7248 36.2274C41.778 36.2773 40.2589 37.4892 39.9589 39.2001C39.6588 40.911 40.4314 42.1229 42.4277 42.9498C43.1861 43.2635 43.9657 43.5272 44.7147 43.8599C45.1659 44.0619 45.6998 44.3162 45.5463 44.9435C45.4069 45.5162 44.9131 45.7656 44.3461 45.8274C43.864 45.8843 43.3753 45.8317 42.9161 45.6733C42.457 45.515 42.039 45.255 41.693 44.9126C41.0149 44.2876 40.2754 44.2995 39.7415 44.8769C39.2076 45.4544 39.269 46.2338 39.8927 46.8492C40.4237 47.3835 41.0554 47.8059 41.7507 48.0915C42.446 48.3771 43.1911 48.5203 43.9421 48.5126C46.0873 48.5458 47.8072 47.2769 48.1805 45.3855C48.5184 43.6484 47.5143 42.1134 45.4589 41.2674ZM56.6786 45.8346C55.9698 45.8061 55.2611 45.8346 54.5523 45.8346C54.316 45.8346 54.1247 45.8773 54.0585 45.5138C53.7916 44.0381 54.0278 43.7221 55.502 43.7221C55.8257 43.7221 56.1517 43.7221 56.4754 43.7078C57.2409 43.6484 57.7866 43.109 57.7559 42.4009C57.7637 42.0704 57.6458 41.7495 57.4262 41.5035C57.2067 41.2575 56.9021 41.1051 56.5746 41.0773C56.1639 41.0396 55.7509 41.0317 55.339 41.0536C54.0632 41.0536 54.0632 41.0536 54.0774 39.7348C54.0798 39.7047 54.0798 39.6745 54.0774 39.6445C53.9947 39.1169 54.179 38.8888 54.746 38.9316C55.3346 38.9649 55.9246 38.9649 56.5132 38.9316C57.522 38.9031 58.0441 38.4421 58.0418 37.6057C58.0394 36.7692 57.4913 36.2868 56.5108 36.2726C55.3311 36.2567 54.1499 36.2567 52.967 36.2726C51.8708 36.2892 51.429 36.7478 51.4196 37.8623C51.4196 39.3427 51.4196 40.8254 51.4196 42.3058C51.4196 43.8765 51.4054 45.4472 51.4196 47.0156C51.4196 48.0064 51.9039 48.4746 52.8914 48.4864C54.1577 48.5031 55.4241 48.5078 56.6904 48.4864C57.5244 48.4698 58.037 47.9257 58.0323 47.1581C58.0276 46.3906 57.522 45.8678 56.6786 45.8346ZM67.1281 36.2274C66.3255 36.2285 65.5309 36.3886 64.7898 36.6986C64.0487 37.0085 63.3755 37.4622 62.8088 38.0338C62.242 38.6054 61.7927 39.2837 61.4866 40.03C61.1804 40.7762 61.0234 41.5758 61.0245 42.3831C61.0256 43.1904 61.1847 43.9895 61.4929 44.7349C61.801 45.4803 62.2522 46.1574 62.8205 46.7275C63.3888 47.2975 64.0632 47.7494 64.8051 48.0573C65.547 48.3653 66.342 48.5232 67.1447 48.5221C68.7656 48.5199 70.3194 47.8701 71.464 46.7157C72.6087 45.5613 73.2505 43.9968 73.2483 42.3664C73.2461 40.7361 72.6001 39.1733 71.4523 38.0221C70.3046 36.8708 68.7491 36.2252 67.1281 36.2274ZM67.1281 45.8559C66.6722 45.8585 66.2203 45.7699 65.7986 45.5955C65.377 45.421 64.994 45.1641 64.6718 44.8396C64.3496 44.5151 64.0947 44.1295 63.9218 43.7052C63.7489 43.2808 63.6615 42.8262 63.6646 42.3676C63.6646 41.445 64.029 40.5601 64.6777 39.9077C65.3263 39.2553 66.2061 38.8888 67.1234 38.8888C68.0407 38.8888 68.9205 39.2553 69.5691 39.9077C70.2178 40.5601 70.5822 41.445 70.5822 42.3676C70.5894 42.8257 70.5055 43.2807 70.3352 43.7056C70.165 44.1306 69.9119 44.517 69.5909 44.8421C69.2699 45.1672 68.8875 45.4243 68.4661 45.5985C68.0448 45.7726 67.5931 45.8601 67.1376 45.8559H67.1281ZM78.3644 39.2025C76.8831 28.134 67.2604 19.7316 56.0714 19.7553C54.6573 19.7674 53.2473 19.9098 51.859 20.1807C42.9168 22.1886 36.9041 27.5637 34.4659 36.4152C32.0514 45.1835 34.5061 52.8112 40.9889 59.1462C41.5487 59.6719 42.1422 60.1601 42.7656 60.6076C43.4389 61.1138 44.1831 61.0306 44.6556 60.4532C45.1281 59.8758 45.0454 59.1201 44.4382 58.5522C44.2422 58.3716 44.0177 58.2267 43.8145 58.0556C37.9838 53.1391 35.3732 46.854 36.5214 39.2975C38.187 28.3098 48.249 21.0314 59.1356 22.6639C71.0641 24.4484 78.6975 36.7573 75.0521 48.3272C74.268 50.8471 72.9953 53.1857 71.3075 55.208C69.6197 57.2304 67.5502 58.8964 65.2187 60.1098C62.8872 61.3232 60.3397 62.0599 57.7235 62.2775C55.1073 62.4951 52.4741 62.1892 49.976 61.3775C48.8184 61.0092 48.1474 61.2255 47.8498 62.069C47.5521 62.9126 48.0104 63.5471 49.135 63.9059C52.5602 65.0452 56.2121 65.3162 59.7664 64.6948C72.0115 62.4991 80.0205 51.5138 78.3738 39.2001L78.3644 39.2025ZM78.3644 39.2025C76.8831 28.134 67.2604 19.7316 56.0714 19.7553C54.6573 19.7674 53.2473 19.9098 51.859 20.1807C42.9168 22.1886 36.9041 27.5637 34.4659 36.4152C32.0514 45.1835 34.5061 52.8112 40.9889 59.1462C41.5487 59.6719 42.1422 60.1601 42.7656 60.6076C43.4389 61.1138 44.1831 61.0306 44.6556 60.4532C45.1281 59.8758 45.0454 59.1201 44.4382 58.5522C44.2422 58.3716 44.0177 58.2267 43.8145 58.0556C37.9838 53.1391 35.3732 46.854 36.5214 39.2975C38.187 28.3098 48.249 21.0314 59.1356 22.6639C71.0641 24.4484 78.6975 36.7573 75.0521 48.3272C74.268 50.8471 72.9953 53.1857 71.3075 55.208C69.6197 57.2304 67.5502 58.8964 65.2187 60.1098C62.8872 61.3232 60.3397 62.0599 57.7235 62.2775C55.1073 62.4951 52.4741 62.1892 49.976 61.3775C48.8184 61.0092 48.1474 61.2255 47.8498 62.069C47.5521 62.9126 48.0104 63.5471 49.135 63.9059C52.5602 65.0452 56.2121 65.3162 59.7664 64.6948C72.0115 62.4991 80.0205 51.5138 78.3738 39.2001L78.3644 39.2025ZM67.1187 36.2298C66.316 36.2309 65.5215 36.391 64.7804 36.7009C64.0393 37.0109 63.3661 37.4646 62.7993 38.0362C61.6547 39.1906 61.0128 40.7551 61.015 42.3855C61.0161 43.1927 61.1753 43.9919 61.4834 44.7373C61.7916 45.4827 62.2427 46.1598 62.811 46.7298C63.9588 47.8811 65.5142 48.5267 67.1352 48.5245C68.7562 48.5223 70.3099 47.8725 71.4545 46.7181C72.5992 45.5637 73.241 43.9992 73.2388 42.3688C73.2366 40.7384 72.5906 39.1757 71.4429 38.0244C70.2951 36.8731 68.7396 36.2276 67.1187 36.2298ZM67.1187 45.8583C66.6633 45.8596 66.2123 45.7701 65.7915 45.5949C65.3708 45.4197 64.9888 45.1623 64.6676 44.8377C64.3464 44.5131 64.0924 44.1277 63.9202 43.7037C63.7481 43.2797 63.6612 42.8256 63.6646 42.3676C63.6646 41.445 64.029 40.5601 64.6777 39.9077C65.3263 39.2553 66.2061 38.8888 67.1234 38.8888C68.0407 38.8888 68.9205 39.2553 69.5691 39.9077C70.2178 40.5601 70.5822 41.445 70.5822 42.3676C70.5894 42.8257 70.5055 43.2807 70.3352 43.7056C70.165 44.1306 69.9119 44.517 69.5909 44.8421C69.2699 45.1672 68.8875 45.4243 68.4661 45.5985C68.0448 45.7726 67.5931 45.8601 67.1376 45.8559L67.1187 45.8583ZM56.6597 45.8369C55.9509 45.8084 55.2422 45.8369 54.5334 45.8369C54.2971 45.8369 54.1058 45.8797 54.0396 45.5161C53.7727 44.0405 54.0089 43.7245 55.4831 43.7245C55.8068 43.7245 56.1328 43.7245 56.4565 43.7102C57.222 43.6508 57.7677 43.1114 57.737 42.4033C57.7448 42.0728 57.6269 41.7518 57.4073 41.5059C57.1878 41.2599 56.8832 41.1075 56.5557 41.0797C56.145 41.042 55.732 41.0341 55.3201 41.0559C54.0443 41.0559 54.0443 41.0559 54.0585 39.7371C54.0609 39.7071 54.0609 39.6769 54.0585 39.6468C53.9758 39.1193 54.1601 38.8912 54.7271 38.934C55.3157 38.9672 55.9057 38.9672 56.4943 38.934C57.5031 38.9054 58.0252 38.4445 58.0229 37.608C58.0205 36.7716 57.4724 36.2892 56.4919 36.275C55.3122 36.2591 54.131 36.2591 52.9481 36.275C51.8519 36.2916 51.4101 36.7502 51.4007 37.8647C51.4007 39.3451 51.4007 40.8278 51.4007 42.3082C51.4007 43.8789 51.3865 45.4496 51.4007 47.0179C51.4007 48.0088 51.885 48.4769 52.8725 48.4888C54.1389 48.5055 55.4052 48.5102 56.6715 48.4888C57.5055 48.4722 58.0181 47.928 58.0134 47.1605C58.0087 46.393 57.522 45.8678 56.6786 45.8346L56.6597 45.8369ZM45.44 41.2698C44.7312 40.9799 44.0035 40.7494 43.3137 40.4405C42.9971 40.3003 42.4821 40.267 42.5482 39.7276C42.6191 39.155 43.0963 38.9815 43.5736 38.9197C44.4075 38.8104 45.1092 39.1716 45.7967 39.6064C46.4842 40.0413 47.2355 39.9249 47.6631 39.3189C48.0907 38.713 47.9844 37.955 47.3135 37.4488C46.2865 36.6366 45.0121 36.206 43.7059 36.2298C41.7591 36.2797 40.24 37.4916 39.94 39.2025C39.6399 40.9134 40.4125 42.1253 42.4088 42.9522C43.1672 43.2659 43.9468 43.5296 44.6958 43.8623C45.147 44.0643 45.6809 44.3185 45.5274 44.9459C45.388 45.5185 44.8942 45.768 44.3272 45.8298C43.8479 45.8835 43.3628 45.829 42.9071 45.6703C42.4514 45.5116 42.0367 45.2528 41.693 44.9126C41.0149 44.2876 40.2754 44.2995 39.7415 44.8769C39.2076 45.4544 39.269 46.2338 39.8927 46.8492C40.4237 47.3835 41.0554 47.8059 41.7507 48.0915C42.446 48.3771 43.1911 48.5203 43.9421 48.5126C46.0873 48.5458 47.8072 47.2769 48.1805 45.3855C48.5184 43.6484 47.5143 42.1134 45.4589 41.2674L45.44 41.2698ZM45.44 41.2698C44.7312 40.9799 44.0035 40.7494 43.3137 40.4405C42.9971 40.3003 42.4821 40.267 42.5482 39.7276C42.6191 39.155 43.0963 38.9815 43.5736 38.9197C44.4075 38.8104 45.1092 39.1716 45.7967 39.6064C46.4842 40.0413 47.2355 39.9249 47.6631 39.3189C48.0907 38.713 47.9844 37.955 47.3135 37.4488C46.2865 36.6366 45.0121 36.206 43.7059 36.2298C41.7591 36.2797 40.24 37.4916 39.94 39.2025C39.6399 40.9134 40.4125 42.1253 42.4088 42.9522C43.1672 43.2659 43.9468 43.5296 44.6958 43.8623C45.147 44.0643 45.6809 44.3185 45.5274 44.9459C45.388 45.5185 44.8942 45.768 44.3272 45.8298C43.8479 45.8835 43.3628 45.829 42.9071 45.6703C42.4514 45.5116 42.0367 45.2528 41.693 44.9126C41.0149 44.2876 40.2754 44.2995 39.7415 44.8769C39.2076 45.4544 39.269 46.2338 39.8927 46.8492C40.4237 47.3835 41.0554 47.8059 41.7507 48.0915C42.446 48.3771 43.1911 48.5203 43.9421 48.5126C46.0873 48.5458 47.8072 47.2769 48.1805 45.3855C48.5184 43.6484 47.5143 42.1134 45.4589 41.2674L45.44 41.2698ZM56.6597 45.8369C55.9509 45.8084 55.2422 45.8369 54.5334 45.8369C54.2971 45.8369 54.1058 45.8797 54.0396 45.5161C53.7727 44.0405 54.0089 43.7245 55.4831 43.7245C55.8068 43.7245 56.1328 43.7245 56.4565 43.7102C57.222 43.6508 57.7677 43.1114 57.737 42.4033C57.7448 42.0728 57.6269 41.7518 57.4073 41.5059C57.1878 41.2599 56.8832 41.1075 56.5557 41.0797C56.145 41.042 55.732 41.0341 55.3201 41.0559C54.0443 41.0559 54.0443 41.0559 54.0585 39.7371C54.0609 39.7071 54.0609 39.6769 54.0585 39.6468C53.9758 39.1193 54.1601 38.8912 54.7271 38.934C55.3157 38.9672 55.9057 38.9672 56.4943 38.934C57.5031 38.9054 58.0252 38.4445 58.0229 37.608C58.0205 36.7716 57.4724 36.2892 56.4919 36.275C55.3122 36.2591 54.131 36.2591 52.9481 36.275C51.8519 36.2916 51.4101 36.7502 51.4007 37.8647C51.4007 39.3451 51.4007 40.8278 51.4007 42.3082C51.4007 43.8789 51.3865 45.4496 51.4007 47.0179C51.4007 48.0088 51.885 48.4769 52.8725 48.4888C54.1389 48.5055 55.4052 48.5102 56.6715 48.4888C57.5055 48.4722 58.0181 47.928 58.0134 47.1605C58.0087 46.393 57.522 45.8678 56.6786 45.8346L56.6597 45.8369ZM67.1092 36.2298C65.4882 36.232 63.9345 36.8818 62.7899 38.0362C61.6452 39.1906 61.0034 40.7551 61.0056 42.3855C61.0078 44.0158 61.6538 45.5785 62.8016 46.7298C63.9493 47.8811 65.5048 48.5267 67.1258 48.5245C67.9284 48.5234 68.7229 48.3633 69.464 48.0533C70.2052 47.7434 70.8783 47.2897 71.4451 46.7181C72.0119 46.1465 72.4612 45.4682 72.7673 44.7219C73.0735 43.9757 73.2305 43.1761 73.2294 42.3688C73.2283 41.5615 73.0691 40.7624 72.761 40.017C72.4528 39.2716 72.0017 38.5945 71.4334 38.0244C70.8651 37.4544 70.1907 37.0025 69.4488 36.6946C68.7068 36.3866 67.9118 36.2287 67.1092 36.2298ZM67.1092 45.8583C66.6547 45.8583 66.2046 45.7679 65.785 45.5921C65.3654 45.4164 64.9845 45.1588 64.6643 44.8344C64.3441 44.5099 64.0909 44.1249 63.9193 43.7015C63.7478 43.2781 63.6612 42.8248 63.6646 42.3676C63.6646 41.445 64.029 40.5601 64.6777 39.9077C65.3263 39.2553 66.2061 38.8888 67.1234 38.8888C68.0407 38.8888 68.9205 39.2553 69.5691 39.9077C70.2178 40.5601 70.5822 41.445 70.5822 42.3676C70.5894 42.8257 70.5055 43.2807 70.3352 43.7056C70.165 44.1306 69.9119 44.517 69.5909 44.8421C69.2699 45.1672 68.8875 45.4243 68.4661 45.5985C68.0448 45.7726 67.5931 45.8601 67.1376 45.8559L67.1092 45.8583ZM78.3455 39.2049C76.8642 28.1363 67.2415 19.734 56.0525 19.7577C54.6384 19.7698 53.2284 19.9122 51.8401 20.1831C42.8979 22.191 36.8852 27.566 34.447 36.4175C32.0325 45.1859 34.4872 52.8136 40.97 59.1486C41.5298 59.6743 42.1233 60.1625 42.7467 60.61C43.42 61.1162 44.1642 61.033 44.6367 60.4556C45.1092 59.8781 45.0265 59.1225 44.4193 58.5546C44.2233 58.374 43.9988 58.229 43.7956 58.0579C37.9649 53.1415 35.3543 46.8563 36.5025 39.2999C38.1681 28.3122 48.2301 21.0338 59.1167 22.6662C71.0452 24.4508 78.6786 36.7597 75.0332 48.3296C74.2491 50.8495 72.9763 53.1881 71.2886 55.2104C69.6008 57.2328 67.5313 58.8987 65.1998 60.1121C62.8683 61.3255 60.3208 62.0623 57.7046 62.2799C55.0884 62.4975 52.4552 62.1916 49.9571 61.3799C48.7995 61.0116 48.1285 61.2278 47.8309 62.0714C47.5332 62.915 47.9915 63.5494 49.1161 63.9082C52.5413 65.0475 56.1932 65.3185 59.7475 64.6972C72.0115 62.4991 80.0205 51.5138 78.3738 39.2001L78.3455 39.2049ZM78.3455 39.2049C76.8642 28.1363 67.2415 19.734 56.0525 19.7577C54.6384 19.7698 53.2284 19.9122 51.8401 20.1831C42.8979 22.191 36.8852 27.566 34.447 36.4175C32.0325 45.1859 34.4872 52.8136 40.97 59.1486C41.5298 59.6743 42.1233 60.1625 42.7467 60.61C43.42 61.1162 44.1642 61.033 44.6367 60.4556C45.1092 59.8781 45.0265 59.1225 44.4193 58.5546C44.2233 58.374 43.9988 58.229 43.7956 58.0579C37.9649 53.1415 35.3543 46.8563 36.5025 39.2999C38.1681 28.3122 48.2301 21.0338 59.1167 22.6662C71.0452 24.4508 78.6786 36.7597 75.0332 48.3296C74.2491 50.8495 72.9763 53.1881 71.2886 55.2104C69.6008 57.2328 67.5313 58.8987 65.1998 60.1121C62.8683 61.3255 60.3208 62.0623 57.7046 62.2799C55.0884 62.4975 52.4552 62.1916 49.9571 61.3799C48.7995 61.0116 48.1285 61.2278 47.8309 62.0714C47.5332 62.915 47.9915 63.5494 49.1161 63.9082C52.5413 65.0475 56.1932 65.3185 59.7475 64.6972C72.0115 62.4991 80.0205 51.5138 78.3738 39.2001L78.3455 39.2049ZM73.2093 42.3843C73.2102 41.1674 72.8521 39.9777 72.1802 38.9657C71.5084 37.9538 70.553 37.1651 69.4352 36.6997C68.3174 36.2342 67.0874 36.1129 65.901 36.3512C64.7145 36.5894 63.6251 37.1763 62.7706 38.0378C61.9161 38.8992 61.3351 39.9963 61.101 41.1902C60.8669 42.384 60.9904 43.6209 61.4557 44.7441C61.9211 45.8673 62.7074 46.8264 63.7151 47.4997C64.7228 48.1731 65.9065 48.5306 67.1163 48.5268C67.9196 48.5278 68.7153 48.3695 69.4578 48.061C70.2002 47.7525 70.875 47.2999 71.4435 46.729C72.012 46.1581 72.463 45.4801 72.7709 44.7338C73.0787 43.9875 73.2374 43.1875 73.2377 42.3795L73.2093 42.3843ZM63.641 42.3724C63.641 41.4497 64.0054 40.5649 64.6541 39.9125C65.3027 39.2601 66.1824 38.8936 67.0998 38.8936C68.0171 38.8936 68.8968 39.2601 69.5455 39.9125C70.1941 40.5649 70.5585 41.4497 70.5585 42.3724C70.5585 43.295 70.1941 44.1799 69.5455 44.8323C68.8968 45.4847 68.0171 45.8512 67.0998 45.8512C66.1824 45.8512 65.3027 45.4847 64.6541 44.8323C64.0054 44.1799 63.641 43.295 63.641 42.3724ZM51.403 47.0227C51.403 48.0136 51.8873 48.4817 52.8749 48.4936C54.1412 48.5102 55.4075 48.515 56.6739 48.4936C57.5078 48.4769 58.0205 47.9328 58.0158 47.1653C58.0111 46.3977 57.4866 45.8797 56.6502 45.8464C55.9415 45.8179 55.2327 45.8464 54.5239 45.8464C54.2877 45.8464 54.0963 45.8892 54.0302 45.5256C53.7632 44.05 53.9995 43.734 55.4737 43.734C55.7974 43.734 56.1234 43.734 56.4471 43.7197C57.2125 43.6603 57.7583 43.1209 57.7276 42.4128C57.7353 42.0823 57.6174 41.7613 57.3979 41.5154C57.1784 41.2694 56.8738 41.117 56.5463 41.0892C56.1355 41.0515 55.7226 41.0436 55.3107 41.0655C54.0349 41.0655 54.0349 41.0655 54.0491 39.7466C54.0514 39.7166 54.0514 39.6864 54.0491 39.6563C53.9664 39.1288 54.1507 38.9007 54.7177 38.9435C55.3063 38.9767 55.8963 38.9767 56.4849 38.9435C57.4937 38.915 58.0158 38.454 58.0134 37.6175C58.0111 36.7811 57.463 36.2987 56.4825 36.2845C55.3028 36.2686 54.1215 36.2686 52.9387 36.2845C51.8425 36.3011 51.4007 36.7597 51.3912 37.8742C51.3912 39.3546 51.3912 40.8373 51.3912 42.3177C51.4267 43.8789 51.4125 45.4496 51.4314 47.0179L51.403 47.0227ZM44.3154 45.8346C43.8377 45.8858 43.3546 45.8297 42.9011 45.6702C42.4476 45.5108 42.0349 45.252 41.693 44.9126C41.0149 44.2876 40.2754 44.2995 39.7415 44.8769C39.2076 45.4544 39.269 46.2338 39.8927 46.8492C40.4237 47.3835 41.0554 47.8059 41.7507 48.0915C42.446 48.3771 43.1911 48.5203 43.9421 48.5126C46.0873 48.5458 47.8072 47.2769 48.1805 45.3855C48.5254 43.6389 47.5214 42.1039 45.466 41.2579C44.7572 40.968 44.0295 40.7375 43.3397 40.4286C43.0231 40.2884 42.508 40.2552 42.5742 39.7158C42.6451 39.1431 43.1223 38.9696 43.5995 38.9078C44.4335 38.7985 45.1352 39.1597 45.8227 39.5946C46.5102 40.0294 47.2615 39.913 47.6891 39.307C48.1167 38.7011 48.0104 37.9431 47.3395 37.4369C46.3125 36.6247 45.0381 36.1941 43.7318 36.2179C41.7851 36.2678 40.266 37.4797 39.966 39.1906C39.6659 40.9015 40.4385 42.1134 42.4348 42.9403C43.1932 43.254 43.9728 43.5177 44.7217 43.8504C45.173 44.0524 45.7069 44.3066 45.5534 44.934C45.4022 45.5209 44.9084 45.7704 44.3414 45.8322L44.3154 45.8346ZM95.5661 74.8674C93.9737 73.2445 92.3743 71.6239 90.7465 70.0342C90.5447 69.8498 90.3862 69.6226 90.2825 69.369C90.1787 69.1155 90.1322 68.8419 90.1464 68.568C90.1653 53.9938 90.17 39.4148 90.1606 24.831C90.1606 22.8706 89.3904 22.0936 87.4295 22.0912C83.5998 22.0912 79.7677 22.0912 75.938 22.0912C75.7072 22.101 75.4767 22.0639 75.2604 21.9823C75.0441 21.9007 74.8463 21.7761 74.6788 21.6159C64.2364 12.0943 48.1191 12.0468 37.6766 21.5161C37.4804 21.7091 37.2474 21.8602 36.9916 21.9603C36.7358 22.0603 36.4625 22.1073 36.1882 22.0983C32.5641 22.0722 28.94 22.0983 25.3205 22.0983C25.0563 22.0883 24.7917 22.0987 24.5291 22.1292C24.2281 22.1722 23.9517 22.3206 23.7487 22.5482C23.5457 22.7759 23.429 23.0682 23.4191 23.3739C23.4093 23.6795 23.5068 23.9789 23.6947 24.2193C23.8826 24.4598 24.1488 24.6259 24.4464 24.6884C24.7658 24.74 25.0894 24.7607 25.4127 24.7502C28.1509 24.7502 30.8914 24.7502 33.632 24.7502C33.8682 24.7502 34.1494 24.648 34.4045 24.8738C33.9084 25.5747 33.3697 26.2401 32.9445 26.9696C32.6444 27.4829 32.2853 27.6041 31.7301 27.6017C24.9858 27.5747 18.2392 27.5629 11.4902 27.566C9.34738 27.566 9.36391 27.566 9.37809 25.4037C9.37809 24.8595 9.51039 24.6908 10.0632 24.7074C12.1234 24.7407 14.1859 24.7241 16.2484 24.7193C17.0445 24.7193 17.8407 24.7454 18.6345 24.6908C18.7917 24.6908 18.9472 24.6593 19.0921 24.5981C19.237 24.5369 19.3683 24.4473 19.4783 24.3344C19.5883 24.2216 19.6748 24.0878 19.7328 23.9409C19.7907 23.794 19.819 23.6369 19.8158 23.4789C19.856 22.7304 19.4567 22.248 18.7125 22.1078C18.4508 22.0665 18.1859 22.049 17.921 22.0555C15.1214 22.0555 12.3218 22.0888 9.52457 22.0389C8.18973 22.0175 7.26125 22.5141 6.74622 23.7545V74.6061C7.28015 75.8987 8.25824 76.3122 9.61671 76.3003C15.1545 76.2575 20.6947 76.2837 26.2325 76.2813C27.598 76.2813 28.2336 75.8679 28.2477 74.9791C28.2619 74.0904 27.6004 73.6152 26.1852 73.6152C20.853 73.6152 15.5207 73.6152 10.1884 73.6152C9.62616 73.6152 9.38045 73.5605 9.38045 72.8785C9.40408 58.892 9.40408 44.9055 9.38045 30.9189C9.38045 30.4056 9.45605 30.206 10.0396 30.206C16.8122 30.2346 23.5849 30.2441 30.3575 30.2346C30.8914 30.2346 31.0403 30.3272 30.7804 30.8666C30.1231 32.2221 29.616 33.6461 29.2683 35.113C29.1337 35.6809 28.914 35.852 28.3233 35.8472C24.2857 35.8187 20.2505 35.8306 16.2129 35.833C14.8356 35.833 14.415 36.2417 14.4103 37.6199C14.4103 40.8484 14.4103 44.0785 14.4103 47.3102C14.4103 48.7597 14.819 49.166 16.2342 49.1684H27.572C29.1006 49.1684 29.0959 49.1684 29.5684 50.6845C29.699 51.138 29.8568 51.5832 30.0409 52.0175C30.315 52.6258 30.2772 52.8516 29.4975 52.8445C25.1386 52.8041 20.7774 52.8255 16.4185 52.8255C14.975 52.8255 14.3394 53.2318 14.3489 54.1561C14.3583 55.0805 14.9962 55.4916 16.435 55.4916C21.2073 55.4916 25.9797 55.4916 30.752 55.4916C31.0568 55.4916 31.4419 55.3324 31.6545 55.6674C32.3349 56.7463 32.9894 57.8441 33.7194 59.0417H16.3783C14.982 59.0417 14.3749 59.4243 14.3489 60.3225C14.3229 61.2207 14.9868 61.7078 16.3854 61.7078C22.632 61.7078 28.8762 61.7078 35.1227 61.6936C35.424 61.6828 35.724 61.7365 36.003 61.8512C36.282 61.9659 36.5336 62.139 36.7411 62.3589C41.9623 67.4282 48.2034 70.0754 55.4642 70.3003C60.2508 70.4547 64.9923 69.3289 69.2048 67.0377C69.6773 66.7859 69.949 66.7645 70.3223 67.1851C70.946 67.8979 71.6359 68.5443 72.3115 69.2049C73.3392 70.2124 74.2299 70.3716 75.5175 69.7823C75.7301 69.6849 75.8861 69.5067 76.1294 69.7562C77.3508 71.0179 78.5888 72.2655 79.9449 73.6461H78.8369L34.0265 73.6223C33.7619 73.6223 33.4949 73.6223 33.2303 73.6223C32.3089 73.6865 31.7963 74.176 31.8128 74.9744C31.8293 75.7728 32.3373 76.2599 33.2752 76.2766C34.5415 76.298 35.8079 76.2766 37.0766 76.2766C38.8934 76.2766 38.8934 76.2766 38.4208 78.0065C38.2035 78.8025 38.1846 79.7981 37.7003 80.3399C37.1711 80.9197 36.1363 80.4421 35.3377 80.5586C35.2787 80.5586 35.2196 80.5585 35.1605 80.5728C31.9333 80.8104 29.6747 83.1273 29.4904 86.3803C29.3912 88.134 29.7763 88.5427 31.5269 88.5451L63.4213 88.5665C64.3049 88.5665 65.1908 88.5855 66.0721 88.5665C66.8919 88.5356 67.3738 88.1055 67.466 87.2572C67.6014 85.8597 67.2544 84.458 66.4835 83.2875C65.7125 82.1169 64.5645 81.249 63.2323 80.8294C62.1644 80.5039 61.0706 80.549 59.9885 80.5918C59.3506 80.6203 59.1144 80.3946 58.9844 79.8005C58.7836 78.8785 58.5119 77.9684 58.2331 77.0678C58.0512 76.4833 58.1221 76.2647 58.819 76.2671C66.5367 76.2971 74.2543 76.3067 81.972 76.2956C82.1881 76.2849 82.4039 76.322 82.6043 76.404C82.8047 76.4861 82.9848 76.6113 83.132 76.7708C84.8645 78.5451 86.6128 80.3067 88.3768 82.0556C90.5811 84.2488 93.7398 84.3177 95.7858 82.2338C97.8317 80.1498 97.7443 77.0607 95.592 74.8651L95.5661 74.8674ZM26.8278 46.5237C23.8274 46.5237 20.827 46.5237 17.8265 46.5237C17.3091 46.5237 17.0564 46.4714 17.0682 45.8322C17.1131 43.6152 17.106 41.3958 17.0682 39.1787C17.0682 38.6203 17.2217 38.4991 17.7557 38.5039C21.1388 38.5276 24.5196 38.5324 27.9146 38.5039C28.5052 38.5039 28.5785 38.6797 28.5123 39.2025C28.2182 41.6357 28.2548 44.0979 28.621 46.5213L26.8278 46.5237ZM40.6653 79.8457C40.996 78.8714 41.2441 77.8639 41.4827 76.8587C41.5819 76.4405 41.752 76.2861 42.1915 76.2885C46.37 76.3027 50.5501 76.3027 54.7318 76.2885C55.1642 76.2885 55.3437 76.4263 55.4406 76.854C55.6769 77.8877 55.9533 78.9166 56.277 79.9288C56.4494 80.4659 56.3266 80.5799 55.8044 80.5752C53.3616 80.5538 50.9187 80.5752 48.4806 80.5752C46.0424 80.5752 43.6539 80.5585 41.2394 80.5752C40.6345 80.5823 40.4479 80.4849 40.6653 79.8457ZM61.0658 83.2461C62.5401 83.2461 63.719 83.7071 64.4395 85.0615C64.8672 85.8647 64.8294 85.9217 63.9481 85.9217H48.4782V85.9003H33.0177C32.1058 85.9003 32.0727 85.8552 32.505 85.052C32.738 84.5707 33.0891 84.1571 33.5253 83.8502C33.9614 83.5434 34.4681 83.3534 34.9975 83.2984C35.348 83.2564 35.7006 83.2358 36.0536 83.2366C44.3808 83.2397 52.7182 83.2429 61.0658 83.2461ZM81.731 24.7526C83.4344 24.7526 85.1401 24.7668 86.8435 24.7526C87.316 24.7526 87.5523 24.7882 87.5641 25.3965C87.5641 27.6088 87.5996 27.6088 85.4024 27.6088C83.7273 27.6088 82.0523 27.5946 80.3773 27.6088C80.1772 27.6341 79.9742 27.5982 79.7947 27.5058C79.6152 27.4134 79.4675 27.2688 79.3708 27.0908C78.9125 26.3399 78.3715 25.6413 77.7477 24.7526H81.731ZM54.7626 67.6579C48.7556 67.3199 43.0673 64.831 38.7263 60.6413C34.3852 56.4516 31.6781 50.8378 31.0946 44.8152C29.7952 31.532 39.1769 19.3585 52.2346 17.3838C65.6681 15.3545 77.9864 23.9755 80.7647 37.3443C80.8427 37.7221 80.8852 38.107 80.9774 38.4777C81.1758 39.2761 81.8231 39.7229 82.5319 39.5684C83.2407 39.414 83.6825 38.7534 83.5549 37.9526C83.1822 35.5851 82.5023 33.2771 81.5325 31.0876C81.4286 30.85 81.3412 30.6124 81.2089 30.2678C83.2265 30.2678 85.1661 30.2678 87.1152 30.2678C87.4814 30.2678 87.5877 30.4175 87.5452 30.7431C87.5405 30.8317 87.5405 30.9206 87.5452 31.0092C87.5452 42.7447 87.5452 54.4801 87.5452 66.2156C87.5452 66.3272 87.5452 66.4532 87.5216 66.7716C86.0356 65.2651 84.6653 63.8726 83.2879 62.4944C83.0635 62.2686 83.269 62.1284 83.347 61.9573C83.9329 60.6766 83.7864 59.7356 82.813 58.7257C82.1374 58.0128 81.4688 57.2999 80.7435 56.6607C80.3465 56.3043 80.3867 56.0405 80.6135 55.6175C82.3495 52.3781 83.4288 48.8243 83.7888 45.1621C83.8313 44.751 83.9211 44.3304 83.7415 43.9336C83.6403 43.6511 83.4413 43.4147 83.181 43.2677C82.9207 43.1206 82.6165 43.0728 82.324 43.1328C81.5633 43.2492 81.2443 43.7696 81.1829 44.4967C80.9696 47.0653 80.3657 49.5858 79.3921 51.97C75.371 61.8385 65.3468 68.2259 54.7626 67.6579ZM74.6646 67.0377C74.3764 67.3324 74.1921 67.3775 73.8968 67.0568C73.3322 66.4579 72.7155 65.9043 72.0824 65.2888C74.5783 63.5065 76.7708 61.3294 78.5746 58.8421C78.7991 58.5284 78.9597 58.5902 79.1865 58.8421C79.6732 59.3554 80.1623 59.871 80.6868 60.3439C81.001 60.6267 80.8947 60.7859 80.6513 61.0259C78.6479 63.0187 76.6523 65.0227 74.6646 67.0377ZM93.3075 80.8199C92.919 81.0392 92.4762 81.1419 92.0315 81.1158C91.5868 81.0897 91.1589 80.9359 90.7985 80.6726C90.5158 80.4606 90.254 80.2219 90.0164 79.9597C86.1608 76.0888 82.324 72.1989 78.44 68.3566C77.8423 67.7649 77.8989 67.4607 78.473 66.9498C79.2858 66.2251 80.0323 65.4219 80.7907 64.633C81.0719 64.3407 81.249 64.2029 81.6223 64.5783C85.6859 68.6972 89.7621 72.8065 93.8509 76.9063C94.0893 77.1416 94.2789 77.4222 94.4087 77.7318C94.5385 78.0414 94.6058 78.3738 94.6069 78.7098C94.6047 79.1478 94.4822 79.5767 94.2529 79.9491C94.0235 80.3215 93.6964 80.6228 93.3075 80.8199ZM78.3738 39.212C76.8925 28.1435 67.2699 19.7411 56.0809 19.7648C54.6668 19.7769 53.2567 19.9193 51.8684 20.1902C42.9262 22.1981 36.9135 27.5732 34.4754 36.4247C32.0609 45.193 34.5156 52.8207 40.9984 59.1558C41.5582 59.6815 42.1517 60.1696 42.775 60.6171C43.4483 61.1233 44.1925 61.0401 44.665 60.4627C45.1376 59.8853 45.0549 59.1296 44.4477 58.5617C44.2516 58.3811 44.0272 58.2362 43.824 58.0651C37.9932 53.1486 35.3826 46.8635 36.5308 39.307C38.1964 28.3193 48.2585 21.0409 59.1451 22.6734C71.0736 24.4579 78.7069 36.7668 75.0615 48.3367C74.2774 50.8566 73.0047 53.1952 71.3169 55.2175C69.6291 57.2399 67.5597 58.9059 65.2282 60.1193C62.8966 61.3327 60.3492 62.0694 57.7329 62.287C55.1167 62.5046 52.4835 62.1987 49.9855 61.387C48.8279 61.0187 48.1569 61.235 47.8592 62.0785C47.5615 62.9221 48.0199 63.5565 49.1444 63.9154C52.5696 65.0547 56.2215 65.3256 59.7759 64.7043C72.0115 62.4991 80.0205 51.5138 78.3738 39.2001V39.212ZM73.2377 42.3914C73.2386 41.1746 72.8804 39.9848 72.2086 38.9729C71.5367 37.9609 70.5814 37.1723 69.4636 36.7068C68.3457 36.2414 67.1157 36.1201 65.9293 36.3583C64.7429 36.5965 63.6535 37.1835 62.799 38.0449C61.9445 38.9063 61.3634 40.0035 61.1293 41.1973C60.8953 42.3912 61.0187 43.628 61.4841 44.7512C61.9494 45.8744 62.7358 46.8335 63.7434 47.5069C64.7511 48.1803 65.9348 48.5377 67.1447 48.534C68.7634 48.5283 70.3138 47.8772 71.456 46.7235C72.5982 45.5698 73.2389 44.0076 73.2377 42.3795V42.3914ZM63.6694 42.3795C63.6694 41.4569 64.0338 40.572 64.6824 39.9196C65.331 39.2672 66.2108 38.9007 67.1281 38.9007C68.0454 38.9007 68.9252 39.2672 69.5738 39.9196C70.2225 40.572 70.5869 41.4569 70.5869 42.3795C70.5869 42.8364 70.4974 43.2887 70.3236 43.7108C70.1498 44.1329 69.895 44.5164 69.5738 44.8394C69.2527 45.1624 68.8714 45.4187 68.4517 45.5935C68.0321 45.7683 67.5823 45.8583 67.1281 45.8583C66.6739 45.8583 66.2241 45.7683 65.8045 45.5935C65.3849 45.4187 65.0036 45.1624 64.6824 44.8394C64.3612 44.5164 64.1065 44.1329 63.9326 43.7108C63.7588 43.2887 63.6694 42.8364 63.6694 42.3795ZM51.4314 47.0298C51.4314 48.0207 51.9157 48.4888 52.9032 48.5007C54.1696 48.5173 55.4359 48.5221 56.7022 48.5007C57.5362 48.4841 58.0489 47.9399 58.0441 47.1724C58.0394 46.4049 57.5149 45.8868 56.6786 45.8536C55.9698 45.8251 55.2611 45.8536 54.5523 45.8536C54.316 45.8536 54.1247 45.8963 54.0585 45.5328C53.7916 44.0571 54.0278 43.7411 55.502 43.7411C55.8257 43.7411 56.1517 43.7411 56.4754 43.7268C57.2409 43.6674 57.7866 43.128 57.7559 42.4199C57.7637 42.0895 57.6458 41.7685 57.4262 41.5225C57.2067 41.2765 56.9021 41.1241 56.5746 41.0963C56.1639 41.0587 55.7509 41.0507 55.339 41.0726C54.0632 41.0726 54.0632 41.0726 54.0774 39.7538C54.0798 39.7237 54.0798 39.6935 54.0774 39.6635C53.9947 39.1359 54.179 38.9078 54.746 38.9506C55.3346 38.9839 55.9246 38.9839 56.5132 38.9506C57.522 38.9221 58.0441 38.4611 58.0418 37.6247C58.0394 36.7882 57.4913 36.3058 56.5108 36.2916C55.3311 36.2757 54.1499 36.2757 52.967 36.2916C51.8708 36.3082 51.429 36.7668 51.4196 37.8813C51.4196 39.3617 51.4196 40.8445 51.4196 42.3249C51.4266 43.8789 51.4125 45.4496 51.4314 47.0179V47.0298ZM44.3437 45.8417C43.8609 45.8964 43.3721 45.8413 42.9133 45.6805C42.4544 45.5197 42.0374 45.2572 41.693 44.9126C41.0149 44.2876 40.2754 44.2995 39.7415 44.8769C39.2076 45.4544 39.269 46.2338 39.8927 46.8492C40.4237 47.3835 41.0554 47.8059 41.7507 48.0915C42.446 48.3771 43.1911 48.5203 43.9421 48.5126C46.0873 48.5458 47.8072 47.2769 48.1805 45.3855C48.5254 43.6389 47.5214 42.1039 45.466 41.2579C44.7572 40.968 44.0295 40.7375 43.3397 40.4286C43.0231 40.2884 42.508 40.2552 42.5742 39.7158C42.6451 39.1431 43.1223 38.9696 43.5995 38.9078C44.4335 38.7985 45.1352 39.1597 45.8227 39.5946C46.5102 40.0294 47.2615 39.913 47.6891 39.307C48.1167 38.7011 48.0104 37.9431 47.3395 37.4369C46.3125 36.6247 45.0381 36.1941 43.7318 36.2179C41.7851 36.2678 40.266 37.4797 39.966 39.1906C39.6659 40.9015 40.4385 42.1134 42.4348 42.9403C43.1932 43.254 43.9728 43.5177 44.7217 43.8504C45.173 44.0524 45.7069 44.3066 45.5534 44.934C45.4022 45.5209 44.9084 45.7704 44.3414 45.8322L44.3437 45.8417ZM45.4612 41.2769C44.7525 40.987 44.0248 40.7565 43.3349 40.4476C43.0184 40.3074 42.5033 40.2742 42.5695 39.7348C42.6404 39.1621 43.1176 38.9886 43.5948 38.9268C44.4288 38.8175 45.1305 39.1787 45.818 39.6136C46.5055 40.0484 47.2568 39.932 47.6844 39.326C48.112 38.7201 48.0057 37.9621 47.3347 37.4559C46.3077 36.6437 45.0334 36.2131 43.7271 36.2369C41.7804 36.2868 40.2613 37.4987 39.9612 39.2096C39.6612 40.9205 40.4337 42.1324 42.4301 42.9593C43.1885 43.273 43.9681 43.5367 44.717 43.8694C45.1683 44.0714 45.7022 44.3256 45.5486 44.953C45.4092 45.5257 44.9155 45.7752 44.3485 45.8369C43.8653 45.893 43.3757 45.839 42.916 45.679C42.4564 45.519 42.0384 45.2571 41.693 44.9126C41.0149 44.2876 40.2754 44.2995 39.7415 44.8769C39.2076 45.4544 39.269 46.2338 39.8927 46.8492C40.4237 47.3835 41.0554 47.8059 41.7507 48.0915C42.446 48.3771 43.1911 48.5203 43.9421 48.5126C46.0873 48.5458 47.8072 47.2769 48.1805 45.3855C48.5184 43.6484 47.5143 42.1134 45.4589 41.2674L45.4612 41.2769ZM56.6809 45.8441C55.9722 45.8156 55.2634 45.8441 54.5547 45.8441C54.3184 45.8441 54.127 45.8868 54.0609 45.5233C53.7939 44.0476 54.0302 43.7316 55.5044 43.7316C55.8281 43.7316 56.1541 43.7316 56.4778 43.7173C57.2432 43.6579 57.789 43.1185 57.7583 42.4104C57.766 42.0799 57.6481 41.759 57.4286 41.513C57.2091 41.267 56.9045 41.1146 56.577 41.0868C56.1662 41.0491 55.7533 41.0412 55.3414 41.0631C54.0656 41.0631 54.0656 41.0631 54.0798 39.7443C54.0821 39.7142 54.0821 39.684 54.0798 39.654C53.9971 39.1264 54.1814 38.8983 54.7484 38.9411C55.337 38.9744 55.927 38.9744 56.5156 38.9411C57.5244 38.9126 58.0465 38.4516 58.0441 37.6152C58.0418 36.7787 57.4937 36.2963 56.5132 36.2821C55.3335 36.2662 54.1522 36.2662 52.9694 36.2821C51.8732 36.2987 51.4314 36.7573 51.4219 37.8718C51.4219 39.3522 51.4219 40.835 51.4219 42.3154C51.4219 43.8861 51.4077 45.4567 51.4219 47.0251C51.4219 48.016 51.9062 48.4841 52.8938 48.4959C54.1601 48.5126 55.4264 48.5173 56.6928 48.4959C57.5267 48.4793 58.0394 47.9352 58.0347 47.1676C58.03 46.4001 57.522 45.8678 56.6786 45.8346L56.6809 45.8441ZM67.1305 36.2369C65.5095 36.2391 63.9558 36.8889 62.8111 38.0433C61.6665 39.1977 61.0247 40.7622 61.0268 42.3926C61.029 44.0229 61.6751 45.5857 62.8228 46.737C63.9706 47.8883 65.526 48.5338 67.147 48.5316C67.9496 48.5305 68.7442 48.3704 69.4853 48.0605C70.2264 47.7505 70.8996 47.2968 71.4664 46.7252C72.0331 46.1536 72.4824 45.4753 72.7886 44.7291C73.0947 43.9828 73.2517 43.1832 73.2506 42.376C73.2496 41.5687 73.0904 40.7695 72.7822 40.0241C72.4741 39.2787 72.023 38.6016 71.4547 38.0316C70.8864 37.4615 70.212 37.0096 69.47 36.7017C68.7281 36.3938 67.9331 36.2358 67.1305 36.2369ZM67.1305 45.8655C66.6735 45.8683 66.2206 45.7797 65.7981 45.6048C65.3755 45.4299 64.9918 45.1721 64.6692 44.8466C64.3467 44.5211 64.0917 44.1343 63.9193 43.7087C63.7468 43.2831 63.6602 42.8272 63.6646 42.3676C63.6646 41.445 64.029 40.5601 64.6777 39.9077C65.3263 39.2553 66.2061 38.8888 67.1234 38.8888C68.0407 38.8888 68.9205 39.2553 69.5691 39.9077C70.2178 40.5601 70.5822 41.445 70.5822 42.3676C70.5894 42.8257 70.5055 43.2807 70.3352 43.7056C70.165 44.1306 69.9119 44.517 69.5909 44.8421C69.2699 45.1672 68.8875 45.4243 68.4661 45.5985C68.0448 45.7726 67.5931 45.8601 67.1376 45.8559L67.1305 45.8655ZM78.3667 39.212C76.8854 28.1435 67.2628 19.7411 56.0738 19.7648C54.6597 19.7769 53.2496 19.9193 51.8614 20.1902C42.9191 22.1981 36.9065 27.5732 34.4683 36.4247C32.0538 45.193 34.5085 52.8207 40.9913 59.1558C41.5511 59.6815 42.1446 60.1696 42.7679 60.6171C43.4412 61.1233 44.1855 61.0401 44.658 60.4627C45.1305 59.8853 45.0478 59.1296 44.4406 58.5617C44.2445 58.3811 44.0201 58.2362 43.8169 58.0651C37.9861 53.1486 35.3755 46.8635 36.5237 39.307C38.1893 28.3193 48.2514 21.0409 59.138 22.6734C71.0665 24.4579 78.6999 36.7668 75.0545 48.3367C74.2703 50.8566 72.9976 53.1952 71.3098 55.2175C69.622 57.2399 67.5526 58.9059 65.2211 60.1193C62.8895 61.3327 60.3421 62.0694 57.7259 62.287C55.1096 62.5046 52.4764 62.1987 49.9784 61.387C48.8208 61.0187 48.1498 61.235 47.8521 62.0785C47.5544 62.9221 48.0128 63.5565 49.1373 63.9154C52.5625 65.0547 56.2144 65.3256 59.7688 64.7043C72.0115 62.4991 80.0205 51.5138 78.3738 39.2001L78.3667 39.212ZM78.3667 39.212C76.8854 28.1435 67.2628 19.7411 56.0738 19.7648C54.6597 19.7769 53.2496 19.9193 51.8614 20.1902C42.9191 22.1981 36.9065 27.5732 34.4683 36.4247C32.0538 45.193 34.5085 52.8207 40.9913 59.1558C41.5511 59.6815 42.1446 60.1696 42.7679 60.6171C43.4412 61.1233 44.1855 61.0401 44.658 60.4627C45.1305 59.8853 45.0478 59.1296 44.4406 58.5617C44.2445 58.3811 44.0201 58.2362 43.8169 58.0651C37.9861 53.1486 35.3755 46.8635 36.5237 39.307C38.1893 28.3193 48.2514 21.0409 59.138 22.6734C71.0665 24.4579 78.6999 36.7668 75.0545 48.3367C74.2703 50.8566 72.9976 53.1952 71.3098 55.2175C69.622 57.2399 67.5526 58.9059 65.2211 60.1193C62.8895 61.3327 60.3421 62.0694 57.7259 62.287C55.1096 62.5046 52.4764 62.1987 49.9784 61.387C48.8208 61.0187 48.1498 61.235 47.8521 62.0785C47.5544 62.9221 48.0128 63.5565 49.1373 63.9154C52.5625 65.0547 56.2144 65.3256 59.7688 64.7043C72.0115 62.4991 80.0205 51.5138 78.3738 39.2001L78.3667 39.212ZM67.121 36.2393C66.3184 36.2404 65.5239 36.4005 64.7827 36.7104C64.0416 37.0204 63.3685 37.4741 62.8017 38.0457C62.2349 38.6173 61.7856 39.2956 61.4795 40.0418C61.1733 40.7881 61.0163 41.5877 61.0174 42.395C61.0185 43.2022 61.1776 44.0014 61.4858 44.7468C61.794 45.4922 62.2451 46.1693 62.8134 46.7393C63.3817 47.3094 64.0561 47.7613 64.798 48.0692C65.54 48.3771 66.3349 48.5351 67.1376 48.534C68.7585 48.5318 70.3123 47.882 71.4569 46.7276C72.6016 45.5732 73.2434 44.0087 73.2412 42.3783C73.239 40.7479 72.593 39.1852 71.4452 38.0339C70.2975 36.8827 68.742 36.2371 67.121 36.2393ZM67.121 45.8678C66.6647 45.8694 66.2126 45.7798 65.791 45.6042C65.3694 45.4285 64.9866 45.1704 64.6651 44.8448C64.3435 44.5191 64.0894 44.1324 63.9177 43.7072C63.746 43.2819 63.6599 42.8266 63.6646 42.3676C63.6646 41.445 64.029 40.5601 64.6777 39.9077C65.3263 39.2553 66.2061 38.8888 67.1234 38.8888C68.0407 38.8888 68.9205 39.2553 69.5691 39.9077C70.2178 40.5601 70.5822 41.445 70.5822 42.3676C70.5894 42.8257 70.5055 43.2807 70.3352 43.7056C70.165 44.1306 69.9119 44.517 69.5909 44.8421C69.2699 45.1672 68.8875 45.4243 68.4661 45.5985C68.0448 45.7726 67.5931 45.8601 67.1376 45.8559L67.121 45.8678ZM56.662 45.8464C55.9533 45.8179 55.2445 45.8464 54.5358 45.8464C54.2995 45.8464 54.1081 45.8892 54.042 45.5256C53.775 44.05 54.0113 43.734 55.4855 43.734C55.8092 43.734 56.1352 43.734 56.4589 43.7197C57.2243 43.6603 57.7701 43.1209 57.7394 42.4128C57.7471 42.0823 57.6292 41.7613 57.4097 41.5154C57.1902 41.2694 56.8856 41.117 56.5581 41.0892C56.1473 41.0515 55.7344 41.0436 55.3225 41.0655C54.0467 41.0655 54.0467 41.0655 54.0609 39.7466C54.0633 39.7166 54.0633 39.6864 54.0609 39.6563C53.9782 39.1288 54.1625 38.9007 54.7295 38.9435C55.3181 38.9767 55.9081 38.9767 56.4967 38.9435C57.5055 38.915 58.0276 38.454 58.0252 37.6175C58.0229 36.7811 57.4748 36.2987 56.4943 36.2845C55.3146 36.2686 54.1333 36.2686 52.9505 36.2845C51.8543 36.3011 51.4125 36.7597 51.403 37.8742C51.403 39.3546 51.403 40.8373 51.403 42.3177C51.403 43.8884 51.3888 45.4591 51.403 47.0274C51.403 48.0183 51.8873 48.4864 52.8749 48.4983C54.1412 48.515 55.4075 48.5197 56.6739 48.4983C57.5078 48.4817 58.0205 47.9375 58.0158 47.17C58.0111 46.4025 57.522 45.8678 56.6786 45.8346L56.662 45.8464ZM45.4423 41.2793C44.7336 40.9894 44.0059 40.7589 43.316 40.45C42.9995 40.3098 42.4844 40.2765 42.5506 39.7371C42.6214 39.1645 43.0987 38.991 43.5759 38.9292C44.4099 38.8199 45.1116 39.1811 45.7991 39.6159C46.4866 40.0508 47.2379 39.9344 47.6655 39.3284C48.0931 38.7225 47.9868 37.9645 47.3158 37.4583C46.2888 36.6461 45.0145 36.2155 43.7082 36.2393C41.7615 36.2892 40.2424 37.5011 39.9423 39.212C39.6423 40.9229 40.4148 42.1348 42.4112 42.9617C43.1696 43.2754 43.9492 43.5391 44.6981 43.8718C45.1494 44.0738 45.6833 44.328 45.5297 44.9554C45.3904 45.528 44.8966 45.7775 44.3296 45.8393C43.8492 45.8921 43.3632 45.8363 42.907 45.676C42.4509 45.5156 42.0361 45.2548 41.693 44.9126C41.0149 44.2876 40.2754 44.2995 39.7415 44.8769C39.2076 45.4544 39.269 46.2338 39.8927 46.8492C40.4237 47.3835 41.0554 47.8059 41.7507 48.0915C42.446 48.3771 43.1911 48.5203 43.9421 48.5126C46.0873 48.5458 47.8072 47.2769 48.1805 45.3855C48.5184 43.6484 47.5143 42.1134 45.4589 41.2674L45.4423 41.2793Z" fill="#C02D4E"/>
<path d="M21.4999 65.296C23.3238 65.296 25.1501 65.296 26.9739 65.296C27.9757 65.296 28.5309 65.7712 28.5569 66.5696C28.5828 67.4108 28.0111 67.9502 26.9763 67.955C23.2986 67.9692 19.6193 67.9692 15.9385 67.955C14.9179 67.955 14.3202 67.3989 14.3462 66.5768C14.3721 65.7546 14.9415 65.3055 15.9361 65.2983C17.7907 65.2865 19.6453 65.296 21.4999 65.296Z" fill="#C02D4E"/>
<path d="M45.5412 44.9388C45.6948 44.3115 45.1608 44.0572 44.7096 43.8552C43.9607 43.5225 43.181 43.2588 42.4227 42.9451C40.4169 42.1182 39.649 40.9396 39.9538 39.1954C40.2586 37.4513 41.773 36.2726 43.7197 36.2227C45.0259 36.1989 46.3003 36.6295 47.3273 37.4418C47.9983 37.9479 48.1117 38.694 47.677 39.3119C47.2422 39.9297 46.5169 40.0509 45.8105 39.5994C45.1041 39.1479 44.4214 38.8033 43.5874 38.9126C43.1149 38.9744 42.6424 39.1503 42.562 39.7206C42.4959 40.2552 43.0109 40.2885 43.3275 40.4334C44.0221 40.7423 44.745 40.9728 45.4538 41.2627C47.5092 42.1087 48.5251 43.639 48.1684 45.3903C47.7951 47.2913 46.0751 48.5507 43.93 48.5174C43.1789 48.5251 42.4339 48.3819 41.7385 48.0963C41.0432 47.8107 40.4115 47.3883 39.8806 46.854C39.2568 46.2386 39.2096 45.4283 39.7294 44.8818C40.2491 44.3352 41.0028 44.2924 41.6808 44.9174C42.0266 45.261 42.4448 45.5221 42.9045 45.6812C43.3641 45.8404 43.8535 45.8937 44.3363 45.837C44.9081 45.7705 45.4018 45.521 45.5412 44.9388Z" fill="#C02D4E"/>
<path d="M51.4263 42.3082C51.4263 40.8278 51.4263 39.345 51.4263 37.8646C51.4263 36.7478 51.8775 36.2916 52.9737 36.2749C54.1503 36.2591 55.3316 36.2591 56.5176 36.2749C57.498 36.2892 58.0461 36.7835 58.0485 37.608C58.0509 38.4326 57.5287 38.9054 56.5199 38.934C55.9313 38.9672 55.3413 38.9672 54.7527 38.934C54.1857 38.8864 54.0015 39.1145 54.0841 39.6468C54.0865 39.6769 54.0865 39.7071 54.0841 39.7371C54.07 41.0559 54.07 41.0559 55.3457 41.0559C55.7576 41.0341 56.1706 41.042 56.5814 41.0797C56.9088 41.1075 57.2134 41.2599 57.433 41.5059C57.6525 41.7518 57.7704 42.0728 57.7626 42.4033C57.7933 43.1161 57.2476 43.6508 56.4821 43.7102C56.1585 43.7363 55.8324 43.7221 55.5088 43.7245C54.0345 43.7245 53.7983 44.0405 54.0652 45.5161C54.1314 45.8797 54.3299 45.8369 54.559 45.8369C55.2678 45.8369 55.9765 45.8179 56.6853 45.8369C57.5216 45.8702 58.0461 46.4001 58.0509 47.1557C58.0556 47.9114 57.5429 48.4674 56.7089 48.4841C55.4426 48.5126 54.1763 48.5078 52.91 48.4841C51.9224 48.4722 51.4499 48.0088 51.4381 47.0132C51.4121 45.4496 51.4263 43.8789 51.4263 42.3082Z" fill="#C02D4E"/>
<path d="M67.1277 36.2274C66.3251 36.2285 65.5306 36.3886 64.7895 36.6985C64.0483 37.0085 63.3752 37.4622 62.8084 38.0338C62.2416 38.6054 61.7923 39.2837 61.4862 40.0299C61.18 40.7762 61.023 41.5758 61.0241 42.3831C61.0252 43.1903 61.1844 43.9895 61.4925 44.7349C61.8007 45.4803 62.2518 46.1574 62.8201 46.7274C63.3884 47.2975 64.0628 47.7494 64.8047 48.0573C65.5467 48.3652 66.3417 48.5232 67.1443 48.5221C68.7653 48.5199 70.319 47.8701 71.4636 46.7157C72.6083 45.5613 73.2501 43.9968 73.2479 42.3664C73.2457 40.7361 72.5997 39.1733 71.4519 38.022C70.3042 36.8708 68.7487 36.2252 67.1277 36.2274ZM67.1277 45.8559C66.6718 45.8585 66.2199 45.7699 65.7983 45.5955C65.3766 45.421 64.9936 45.1641 64.6714 44.8396C64.3492 44.5151 64.0943 44.1295 63.9214 43.7052C63.7485 43.2808 63.6611 42.8262 63.6643 42.3676C63.6643 41.445 64.0287 40.5601 64.6773 39.9077C65.326 39.2553 66.2057 38.8888 67.123 38.8888C68.0403 38.8888 68.9201 39.2553 69.5687 39.9077C70.2174 40.5601 70.5818 41.445 70.5818 42.3676C70.5891 42.8257 70.5051 43.2807 70.3349 43.7056C70.1646 44.1306 69.9116 44.517 69.5906 44.8421C69.2696 45.1671 68.8871 45.4243 68.4658 45.5984C68.0444 45.7726 67.5927 45.8601 67.1372 45.8559H67.1277Z" fill="#C02D4E"/>
<path d="M59.7685 64.702C56.2141 65.3233 52.5622 65.0523 49.137 63.9131C48.0124 63.5542 47.5659 62.8841 47.8518 62.0762C48.1377 61.2683 48.8228 61.0164 49.9781 61.3847C52.4761 62.1965 55.1093 62.5023 57.7255 62.2847C60.3418 62.0671 62.8892 61.3304 65.2207 60.117C67.5523 58.9036 69.6217 57.2376 71.3095 55.2152C72.9973 53.1929 74.27 50.8543 75.0541 48.3344C78.6995 36.7621 71.0661 24.4532 59.1377 22.6711C48.2511 21.041 38.189 28.3194 36.5234 39.3047C35.3752 46.8612 37.9858 53.1463 43.8166 58.0628C44.0197 58.2338 44.2442 58.3788 44.4403 58.5594C45.0474 59.1178 45.1301 59.8806 44.6576 60.4604C44.1851 61.0402 43.4456 61.121 42.7676 60.6148C42.1442 60.1673 41.5508 59.6791 40.991 59.1535C34.5152 52.8208 32.0605 45.1764 34.4751 36.4128C36.9132 27.5614 42.9259 22.1863 51.8681 20.1784C53.2563 19.9067 54.6663 19.7635 56.0805 19.7507C67.2601 19.7269 76.8922 28.1293 78.3735 39.1978C80.0202 51.5139 72.0112 62.4992 59.7685 64.702Z" fill="#C02D4E"/>
<path d="M59.7685 64.702C56.2141 65.3233 52.5622 65.0523 49.137 63.9131C48.0124 63.5542 47.5659 62.8841 47.8518 62.0762C48.1377 61.2683 48.8228 61.0164 49.9781 61.3847C52.4761 62.1965 55.1093 62.5023 57.7255 62.2847C60.3418 62.0671 62.8892 61.3304 65.2207 60.117C67.5523 58.9036 69.6217 57.2376 71.3095 55.2152C72.9973 53.1929 74.27 50.8543 75.0541 48.3344C78.6995 36.7621 71.0661 24.4532 59.1377 22.6711C48.2511 21.041 38.189 28.3194 36.5234 39.3047C35.3752 46.8612 37.9858 53.1463 43.8166 58.0628C44.0197 58.2338 44.2442 58.3788 44.4403 58.5594C45.0474 59.1178 45.1301 59.8806 44.6576 60.4604C44.1851 61.0402 43.4456 61.121 42.7676 60.6148C42.1442 60.1673 41.5508 59.6791 40.991 59.1535C34.5152 52.8208 32.0605 45.1764 34.4751 36.4128C36.9132 27.5614 42.9259 22.1863 51.8681 20.1784C53.2563 19.9067 54.6663 19.7635 56.0805 19.7507C67.2601 19.7269 76.8922 28.1293 78.3735 39.1978C80.0202 51.5139 72.0112 62.4992 59.7685 64.702Z" fill="#C02D4E"/>
<path d="M67.1277 36.2274C66.3251 36.2285 65.5306 36.3886 64.7895 36.6985C64.0483 37.0085 63.3752 37.4622 62.8084 38.0338C62.2416 38.6054 61.7923 39.2837 61.4862 40.0299C61.18 40.7762 61.023 41.5758 61.0241 42.3831C61.0252 43.1903 61.1844 43.9895 61.4925 44.7349C61.8007 45.4803 62.2518 46.1574 62.8201 46.7274C63.3884 47.2975 64.0628 47.7494 64.8047 48.0573C65.5467 48.3652 66.3417 48.5232 67.1443 48.5221C68.7653 48.5199 70.319 47.8701 71.4636 46.7157C72.6083 45.5613 73.2501 43.9968 73.2479 42.3664C73.2457 40.7361 72.5997 39.1733 71.4519 38.022C70.3042 36.8708 68.7487 36.2252 67.1277 36.2274ZM67.1277 45.8559C66.6718 45.8585 66.2199 45.7699 65.7983 45.5955C65.3766 45.421 64.9936 45.1641 64.6714 44.8396C64.3492 44.5151 64.0943 44.1295 63.9214 43.7052C63.7485 43.2808 63.6611 42.8262 63.6643 42.3676C63.6643 41.445 64.0287 40.5601 64.6773 39.9077C65.326 39.2553 66.2057 38.8888 67.123 38.8888C68.0403 38.8888 68.9201 39.2553 69.5687 39.9077C70.2174 40.5601 70.5818 41.445 70.5818 42.3676C70.5891 42.8257 70.5051 43.2807 70.3349 43.7056C70.1646 44.1306 69.9116 44.517 69.5906 44.8421C69.2696 45.1671 68.8871 45.4243 68.4658 45.5984C68.0444 45.7726 67.5927 45.8601 67.1372 45.8559H67.1277Z" fill="#C02D4E"/>
<path d="M48.1731 45.3949C47.7998 47.2959 46.0798 48.5553 43.9347 48.5221C43.1836 48.5298 42.4386 48.3866 41.7432 48.101C41.0479 47.8153 40.4162 47.393 39.8853 46.8587C39.2615 46.2432 39.2143 45.433 39.7341 44.8864C40.2538 44.3399 41.0075 44.2971 41.6855 44.9221C42.0313 45.2657 42.4495 45.5267 42.9092 45.6859C43.3688 45.8451 43.8582 45.8983 44.341 45.8417C44.908 45.7799 45.4018 45.5304 45.5412 44.9577C45.6948 44.3304 45.1608 44.0761 44.7096 43.8741C43.9606 43.5415 43.181 43.2777 42.4226 42.964C40.4168 42.1371 39.649 40.9585 39.9538 39.2143C40.2585 37.4702 41.7729 36.2916 43.7197 36.2417C45.0259 36.2178 46.3003 36.6484 47.3273 37.4607C47.9982 37.9668 48.1116 38.7129 47.6769 39.3308C47.2422 39.9486 46.5169 40.0698 45.8105 39.6183C45.1041 39.1668 44.4213 38.8222 43.5874 38.9316C43.1149 38.9933 42.6423 39.1692 42.562 39.7395C42.4959 40.2741 43.0109 40.3074 43.3275 40.4523C44.0221 40.7613 44.745 40.9918 45.4538 41.2817C47.5139 42.1133 48.518 43.6484 48.1731 45.3949Z" fill="#C02D4E"/>
<path d="M58.0438 47.1534C58.0438 47.9209 57.5358 48.4651 56.7018 48.4817C55.4355 48.5102 54.1692 48.5055 52.9029 48.4817C51.9153 48.4698 51.4428 48.0065 51.431 47.0108C51.4121 45.4425 51.431 43.8718 51.431 42.3011C51.431 40.8207 51.431 39.338 51.431 37.8576C51.431 36.7407 51.8823 36.2845 52.9785 36.2679C54.155 36.252 55.3363 36.252 56.5223 36.2679C57.5027 36.2821 58.0509 36.7764 58.0532 37.6009C58.0556 38.4255 57.5335 38.8984 56.5246 38.9269C55.9361 38.9601 55.3461 38.9601 54.7575 38.9269C54.1905 38.8793 54.0062 39.1075 54.0889 39.6397C54.0912 39.6698 54.0912 39.7 54.0889 39.73C54.0747 41.0489 54.0747 41.0489 55.3505 41.0489C55.7624 41.027 56.1753 41.0349 56.5861 41.0726C56.9136 41.1004 57.2182 41.2528 57.4377 41.4988C57.6572 41.7448 57.7751 42.0657 57.7673 42.3962C57.7981 43.109 57.2523 43.6437 56.4868 43.7031C56.1632 43.7292 55.8371 43.715 55.5135 43.7174C54.0393 43.7174 53.803 44.0334 54.07 45.5091C54.1361 45.8726 54.3346 45.8298 54.5637 45.8298C55.2725 45.8298 55.9813 45.8108 56.69 45.8298C57.5216 45.8679 58.039 46.3978 58.0438 47.1534Z" fill="#C02D4E"/>
</g>
<defs>
<clipPath id="clip0_2_4604">
<rect width="90.5185" height="74.1482" fill="white" transform="translate(6.74115 14.4445)"/>
</clipPath>
</defs>
</svg>
