<svg width="104" height="104" viewBox="0 0 104 104" fill="none" xmlns="http://www.w3.org/2000/svg">
<g clip-path="url(#clip0_2_4579)">
<path d="M26.5741 20.2689C25.7245 20.2699 24.8836 20.4392 24.0997 20.7669C23.3159 21.0947 22.6047 21.5743 22.0072 22.1783C21.4097 22.7823 20.9377 23.4986 20.6185 24.2858C20.2992 25.0731 20.139 25.9159 20.1471 26.7654C20.1872 30.3103 22.9953 33.0466 26.591 33.0423C30.2352 33.0423 33.0497 30.2681 33.0413 26.6957C33.0539 25.8448 32.895 25.0001 32.574 24.212C32.2529 23.4239 31.7764 22.7086 31.1728 22.1087C30.5692 21.5088 29.8509 21.0368 29.0607 20.7207C28.2706 20.4045 27.4249 20.2509 26.5741 20.2689ZM26.5636 30.6481C25.5264 30.6255 24.5391 30.1984 23.8125 29.458C23.0859 28.7176 22.6775 27.7225 22.6744 26.6851C22.704 24.5443 24.5261 22.756 26.6375 22.7982C28.6813 22.8362 30.5308 24.7617 30.5118 26.8287C30.4928 28.8957 28.6559 30.6671 26.5636 30.6481ZM26.5741 20.2689C25.7245 20.2699 24.8836 20.4392 24.0997 20.7669C23.3159 21.0947 22.6047 21.5743 22.0072 22.1783C21.4097 22.7823 20.9377 23.4986 20.6185 24.2858C20.2992 25.0731 20.139 25.9159 20.1471 26.7654C20.1872 30.3103 22.9953 33.0466 26.591 33.0423C30.2352 33.0423 33.0497 30.2681 33.0413 26.6957C33.0539 25.8448 32.895 25.0001 32.574 24.212C32.2529 23.4239 31.7764 22.7086 31.1728 22.1087C30.5692 21.5088 29.8509 21.0368 29.0607 20.7207C28.2706 20.4045 27.4249 20.2509 26.5741 20.2689ZM26.5636 30.6481C25.5264 30.6255 24.5391 30.1984 23.8125 29.458C23.0859 28.7176 22.6775 27.7225 22.6744 26.6851C22.704 24.5443 24.5261 22.756 26.6375 22.7982C28.6813 22.8362 30.5308 24.7617 30.5118 26.8287C30.4928 28.8957 28.6559 30.6671 26.5636 30.6481ZM39.2318 23.1086C38.8687 23.0474 38.5076 22.9861 38.1423 22.9355C37.0592 22.7792 36.7193 22.0149 37.3463 21.1303C37.6652 20.6806 37.9966 20.2372 38.2965 19.7748C38.7525 19.0717 38.9067 18.2969 38.571 17.5178C38.3281 16.9204 37.9665 16.3785 37.5082 15.9249C37.0498 15.4713 36.5042 15.1153 35.9043 14.8786C35.5084 14.727 35.0812 14.6754 34.6606 14.7284C34.24 14.7815 33.8389 14.9375 33.4931 15.1827C33.0054 15.493 32.5303 15.8161 32.0468 16.1391C31.2424 16.6712 30.4844 16.3502 30.2944 15.3854C30.1972 14.8977 30.1339 14.4015 30.0326 13.9074C29.9169 13.2409 29.5671 12.6374 29.0461 12.2059C28.5251 11.7743 27.8671 11.5429 27.1906 11.5533C26.9014 11.5533 26.6121 11.5533 26.3229 11.5533C24.6042 11.5533 23.5147 12.4992 23.2529 14.1946C23.1959 14.5577 23.1368 14.9209 23.0819 15.284C22.913 16.403 22.1444 16.7261 21.2218 16.0715C20.7721 15.7527 20.3329 15.4128 19.8578 15.1362C18.6797 14.4522 17.4403 14.6021 16.448 15.5226C16.1186 15.8266 15.8026 16.1433 15.5 16.4727C14.6068 17.4397 14.4759 18.584 15.1495 19.7305C15.4788 20.2963 15.8483 20.8431 16.2263 21.3773C16.4374 21.6623 16.4163 21.9009 16.3382 22.2429C16.1756 22.9566 15.6646 23.0305 15.103 23.0875C13.4941 23.2395 12.1239 23.7399 11.5622 25.4564V27.99C12.069 29.4003 13.0698 30.1498 14.5646 30.2512C14.8243 30.2681 15.0819 30.3377 15.3416 30.38C16.3973 30.5489 16.7224 31.3301 16.0996 32.2063C15.8716 32.5293 15.6456 32.8523 15.4071 33.1648C14.6976 34.1022 14.4105 35.1537 15.0523 36.1755C15.7998 37.3663 16.6021 38.5888 18.2975 38.5888C19.4229 38.5888 20.1872 37.8878 21.0191 37.303C21.9903 36.6189 22.7546 36.9293 22.9447 38.0863C23.0291 38.6035 23.1115 39.125 23.2445 39.6318C23.3857 40.2381 23.7289 40.7783 24.2177 41.1639C24.7065 41.5495 25.3118 41.7574 25.9344 41.7536C26.382 41.7536 26.8296 41.7536 27.2751 41.7536C27.9923 41.7518 28.6844 41.4893 29.2224 41.015C29.7604 40.5408 30.1076 39.887 30.1993 39.1757C30.2754 38.7091 30.3345 38.2404 30.4232 37.7759C30.4577 37.6045 30.5349 37.4446 30.6475 37.3109C30.7602 37.1772 30.9047 37.074 31.0678 37.0109C31.2308 36.9478 31.4071 36.9268 31.5805 36.9498C31.7538 36.9728 31.9185 37.0391 32.0595 37.1425C32.3403 37.3368 32.6359 37.5162 32.904 37.7358C35.3215 39.8049 37.6272 37.8287 38.5752 35.8356C38.9236 35.1072 38.7863 34.3345 38.364 33.6441C38.0537 33.1268 37.7011 32.6349 37.3675 32.1324C36.8016 31.2878 37.1057 30.513 38.0917 30.3124C38.5562 30.2195 39.0228 30.1435 39.4873 30.0548C41.0391 29.7592 41.9006 28.7183 41.909 27.1349C41.909 26.8449 41.909 26.5557 41.909 26.2671C41.8837 24.4746 40.98 23.4021 39.2255 23.1086H39.2318ZM39.2318 27.2827C39.223 27.3862 39.1764 27.4828 39.1008 27.5541C39.0252 27.6254 38.926 27.6663 38.8222 27.669C38.5118 27.7176 38.2036 27.8042 37.8911 27.8295C36.3519 27.9498 35.3406 28.7141 34.724 30.1519C34.1877 31.3997 34.1096 32.5208 35.0302 33.6061C35.2413 33.8636 35.3997 34.1867 35.634 34.4295C36.1218 34.9362 36.0331 35.3036 35.5306 35.7723C35.1294 36.1481 34.8549 36.2684 34.439 35.8588C34.2553 35.6751 33.9935 35.5717 33.8056 35.3922C32.3276 33.9544 30.7589 34.3112 29.1732 35.1579C28.8127 35.3522 28.5041 35.6303 28.2734 35.9687C28.0427 36.307 27.8965 36.6958 27.8473 37.1024C27.748 37.6725 27.6361 38.2383 27.5517 38.8105C27.5052 39.1567 27.4524 39.4819 27.0048 39.3362C26.5572 39.1905 25.8816 39.617 25.7591 38.7703C25.6831 38.251 25.529 37.7421 25.4804 37.2206C25.2904 35.198 21.7053 33.2873 19.8916 34.9826C19.5075 35.3029 19.1034 35.5984 18.6818 35.8673L18.1983 36.2262C17.9745 35.9348 17.7465 35.6139 17.4952 35.3162C17.244 35.0185 17.5163 34.8813 17.6346 34.7061C17.9428 34.2472 18.263 33.7975 18.5952 33.3569C19.2286 32.5251 19.273 31.6193 18.9478 30.6671C18.382 29.0182 17.4023 27.8717 15.5063 27.8316C15.3226 27.8244 15.1411 27.7895 14.9679 27.7281C14.6807 27.6331 14.2183 27.7978 14.1233 27.4389C14.0476 26.973 14.0405 26.4986 14.1022 26.0306C14.117 25.809 14.3598 25.8195 14.5393 25.7794C15.1347 25.6759 15.7301 25.5683 16.3255 25.4627C16.835 25.3871 17.3118 25.1663 17.699 24.8266C18.0862 24.487 18.3673 24.043 18.5087 23.5477C18.7557 22.8109 19.1991 22.1353 19.0027 21.2844C18.7916 20.3702 18.1582 19.7262 17.662 18.9894C17.5663 18.8478 17.5039 18.6864 17.4798 18.5172C17.4556 18.348 17.4702 18.1756 17.5224 18.0129C17.5747 17.8502 17.6633 17.7015 17.7815 17.578C17.8997 17.4546 18.0443 17.3596 18.2046 17.3003C18.439 17.2074 18.5467 17.3848 18.686 17.4798C19.2205 17.8148 19.7325 18.1844 20.2189 18.5861C21.6166 19.8529 25.1806 18.2779 25.301 16.5234C25.3432 15.9238 25.5607 15.3368 25.5923 14.7372C25.6282 14.089 25.9893 14.089 26.4812 14.0742C26.9732 14.0595 27.3363 14.1376 27.3469 14.7541C27.3775 15.0937 27.4311 15.4309 27.5073 15.7633C27.6811 16.7285 28.2092 17.594 28.988 18.19C29.7669 18.7861 30.7403 19.0696 31.7174 18.9852C32.6485 18.8986 33.2524 18.2251 33.9618 17.7458C34.7684 17.199 35.14 17.2708 35.6868 18.0984C35.8409 18.3307 35.7544 18.4742 35.6256 18.6537C35.2835 19.1203 34.9626 19.6038 34.6142 20.064C34.351 20.3784 34.1705 20.7537 34.0894 21.1557C34.0083 21.5576 34.029 21.9735 34.1497 22.3654C34.3925 23.1592 34.5615 23.9932 35.1421 24.6541C35.7227 25.3149 36.544 25.4289 37.3463 25.564C37.606 25.6084 37.87 25.621 38.1297 25.6654C39.255 25.8617 39.4324 26.1425 39.2297 27.2827H39.2318ZM26.5741 20.2689C25.7245 20.2699 24.8836 20.4392 24.0997 20.7669C23.3159 21.0947 22.6047 21.5743 22.0072 22.1783C21.4097 22.7823 20.9377 23.4986 20.6185 24.2858C20.2992 25.0731 20.139 25.9159 20.1471 26.7654C20.1872 30.3103 22.9953 33.0466 26.591 33.0423C30.2352 33.0423 33.0497 30.2681 33.0413 26.6957C33.0539 25.8448 32.895 25.0001 32.574 24.212C32.2529 23.4239 31.7764 22.7086 31.1728 22.1087C30.5692 21.5088 29.8509 21.0368 29.0607 20.7207C28.2706 20.4045 27.4249 20.2509 26.5741 20.2689ZM26.5636 30.6481C25.5264 30.6255 24.5391 30.1984 23.8125 29.458C23.0859 28.7176 22.6775 27.7225 22.6744 26.6851C22.704 24.5443 24.5261 22.756 26.6375 22.7982C28.6813 22.8362 30.5308 24.7617 30.5118 26.8287C30.4928 28.8957 28.6559 30.6671 26.5636 30.6481Z" fill="#C02D4E"/>
<path d="M35.885 92.4444C35.3445 92.0221 34.8631 91.5619 35.1482 90.8081C35.4332 90.0544 36.0582 89.8855 36.814 89.9066C37.9964 89.9404 39.183 89.9066 40.3675 89.9256C40.7898 89.9256 40.9059 89.8031 40.8974 89.3893C40.8721 88.1225 40.8806 86.8557 40.8974 85.5889C40.8974 84.6621 41.4147 84.0709 42.1516 84.0857C42.8885 84.1005 43.4184 84.7423 43.4184 85.6206C43.4332 86.8578 43.4395 88.0951 43.4184 89.3323C43.4184 89.7546 43.4944 89.9171 43.9674 89.9171C49.7089 89.9002 55.449 89.9002 61.1878 89.9171C61.6311 89.9171 61.7747 89.8052 61.7642 89.3492C61.7367 88.0824 61.7452 86.8156 61.7642 85.5488C61.7642 84.6684 62.2561 84.0983 62.9676 84.0709C63.6792 84.0434 64.2661 84.7043 64.2809 85.5488C64.302 86.7586 64.3295 87.9726 64.2682 89.1803C64.2387 89.8137 64.4562 89.915 65.0157 89.8939C66.1474 89.8496 67.2812 89.8939 68.4129 89.8749C69.135 89.8601 69.8085 89.9129 70.121 90.692C70.4335 91.4711 69.8803 91.9377 69.3947 92.4085L35.885 92.4444Z" fill="#C02D4E"/>
<path d="M52.6599 69.5598C51.6511 69.5626 50.684 69.9632 49.9689 70.6748C49.2537 71.3864 48.8482 72.3514 48.8405 73.3602C48.911 74.3191 49.3424 75.2156 50.0477 75.869C50.753 76.5225 51.6798 76.8843 52.6413 76.8817C53.6028 76.879 54.5275 76.512 55.2291 75.8546C55.9308 75.1972 56.3572 74.2983 56.4224 73.3391C56.4094 72.3437 56.0093 71.3925 55.307 70.6871C54.6047 69.9816 53.6552 69.5773 52.6599 69.5598ZM52.5987 74.475C52.4348 74.4725 52.273 74.4378 52.1226 74.3728C51.9722 74.3078 51.836 74.2137 51.7219 74.0961C51.6078 73.9785 51.518 73.8395 51.4576 73.6872C51.3972 73.5348 51.3674 73.372 51.3699 73.2082C51.383 72.8771 51.5238 72.564 51.7627 72.3346C52.0016 72.1051 52.3202 71.977 52.6515 71.9773C52.9806 72.0066 53.2879 72.1544 53.5162 72.3933C53.7445 72.6321 53.8784 72.9457 53.893 73.2757C53.8787 73.6058 53.7347 73.9169 53.4924 74.1414C53.25 74.366 52.9289 74.4858 52.5987 74.475Z" fill="#C02D4E"/>
<path d="M85.5657 21.6687H45.2046C44.9937 21.6549 44.7821 21.6549 44.5712 21.6687C44.2559 21.7105 43.9663 21.865 43.7559 22.1037C43.5456 22.3423 43.4287 22.649 43.4269 22.9672C43.4317 23.2863 43.5604 23.5911 43.7857 23.8172C44.0111 24.0433 44.3154 24.1731 44.6346 24.1791C44.8711 24.1981 45.1096 24.1791 45.3461 24.1791H85.4622C88.3422 24.1791 89.8961 25.7351 89.8961 28.6128C89.8961 40.4362 89.9011 52.2596 89.9109 64.083C89.9109 64.7671 89.7864 64.9888 89.041 64.9867C76.902 64.9585 64.7644 64.9522 52.6282 64.9676C40.4921 64.9831 28.3545 64.9881 16.2155 64.9824C15.5335 64.9824 15.3055 64.8621 15.3076 64.1126C15.3414 56.5562 15.3287 48.9997 15.3287 41.4433C15.3414 41.2067 15.3351 40.9695 15.3097 40.7339C15.261 40.4191 15.0976 40.1333 14.8508 39.9318C14.6041 39.7303 14.2914 39.6272 13.9732 39.6424C13.268 39.7015 12.8922 40.1238 12.8077 40.812C12.7971 40.9956 12.7971 41.1796 12.8077 41.3631C12.8077 52.4743 12.8077 63.5854 12.8077 74.6966C12.8077 78.7419 15.4807 81.4317 19.5219 81.4317C41.5604 81.4317 63.5976 81.4317 85.6333 81.4317C89.7251 81.4317 92.4298 78.687 92.4298 74.5784C92.4298 59.2291 92.4298 43.8791 92.4298 28.5284C92.4424 24.4029 89.7019 21.6687 85.5657 21.6687ZM90.0714 68.5738C90.0207 70.626 90.0714 72.6803 90.0524 74.7346C90.0524 77.245 88.4161 78.9045 85.912 78.9045C63.7721 78.9129 41.6329 78.9129 19.4944 78.9045C16.9777 78.9045 15.354 77.2513 15.3477 74.7494C15.3477 72.6381 15.3773 70.5268 15.3308 68.4323C15.316 67.7799 15.5314 67.6722 16.1226 67.6722C28.3094 67.6891 40.4977 67.6934 52.6874 67.6849C64.8489 67.6849 77.0111 67.6793 89.174 67.668C89.9025 67.6659 90.084 67.858 90.0714 68.5738Z" fill="#C02D4E"/>
<path d="M52.6008 37.4657C48.7074 37.4826 45.4221 40.7826 45.4221 44.6738C45.4243 45.6206 45.6134 46.5578 45.9785 47.4314C46.3436 48.3051 46.8776 49.0981 47.5498 49.765C48.222 50.4319 49.0192 50.9595 49.8958 51.3177C50.7723 51.6759 51.7109 51.8575 52.6578 51.8522C56.5639 51.8396 59.8365 48.5544 59.8365 44.6548C59.8287 42.7425 59.0623 40.9114 57.7058 39.5636C56.3492 38.2157 54.5132 37.4612 52.6008 37.4657ZM52.6641 49.3292C51.4306 49.324 50.2479 48.8373 49.368 47.9728C48.4881 47.1083 47.9806 45.9344 47.9537 44.7012C47.9283 42.1951 50.084 40.0099 52.5987 39.9951C53.8328 40.0078 55.0137 40.4993 55.8924 41.3658C56.7712 42.2323 57.2791 43.4062 57.3092 44.64C57.343 47.144 55.1894 49.3187 52.6641 49.3292Z" fill="#C02D4E"/>
<path d="M66.7048 40.888C66.2382 40.8057 65.7694 40.736 65.3049 40.6474C64.5617 40.508 64.0381 39.1694 64.4752 38.5719C64.9122 37.9744 65.4042 37.3621 65.837 36.7351C66.2063 36.2474 66.3947 35.6467 66.37 35.0355C66.3454 34.4244 66.1092 33.8407 65.7019 33.3844C65.3007 32.8967 64.8573 32.4364 64.4351 31.9719C64.1801 31.7062 63.8744 31.4946 63.5359 31.3495C63.1975 31.2044 62.8333 31.1289 62.4651 31.1274C61.2131 31.062 60.3284 31.7862 59.4712 32.5167C58.8061 33.0846 58.2171 33.338 57.3809 32.8122C57.0136 32.5821 56.7475 32.4364 56.7201 31.9677C56.6652 31.3132 56.5364 30.6672 56.4308 30.019C56.3378 29.3355 56.0047 28.7074 55.4909 28.2471C54.9772 27.7868 54.3165 27.5243 53.6269 27.5065C52.9935 27.4812 52.3601 27.4833 51.7267 27.5065C51.0632 27.5092 50.4223 27.7483 49.9193 28.1809C49.4162 28.6135 49.0838 29.2113 48.9819 29.867C48.8425 30.589 48.7708 31.3238 48.6441 32.0501C48.5111 32.8503 47.1535 33.4055 46.4947 32.9284C45.8782 32.4787 45.2849 31.9973 44.6557 31.5687C44.0978 31.1865 43.4226 31.0142 42.7498 31.0822C42.077 31.1502 41.4499 31.4542 40.9798 31.9403C40.5216 32.4111 40.0803 32.903 39.6665 33.4182C39.2563 33.8895 39.0259 34.4905 39.0158 35.1152C39.0058 35.7399 39.2168 36.348 39.6116 36.8322C40.0339 37.379 40.471 37.8879 40.8996 38.4284C41.457 39.1167 40.9566 40.4172 40.0677 40.5713C39.3435 40.698 38.6066 40.7656 37.8887 40.9197C37.2494 41.0494 36.6724 41.3909 36.251 41.8889C35.8296 42.3869 35.5883 43.0124 35.5662 43.6644C35.5324 44.3464 35.5324 45.0347 35.5662 45.7166C35.6444 47.1946 36.5966 48.1911 38.0619 48.3959C38.6953 48.4846 39.3118 48.5754 39.9304 48.6915C40.6842 48.8329 41.2163 50.1863 40.775 50.8028C40.3337 51.4193 39.8418 52.0105 39.4068 52.6354C39.0484 53.115 38.8642 53.7025 38.8845 54.3009C38.9049 54.8992 39.1286 55.4728 39.5187 55.927C39.941 56.44 40.3633 56.9277 40.832 57.4049C41.3026 57.9115 41.9419 58.229 42.63 58.2978C43.318 58.3666 44.0075 58.182 44.5691 57.7786C45.1329 57.3922 45.6839 56.9847 46.2097 56.5498C46.6108 56.2162 46.9233 56.1824 47.4596 56.3767C48.2577 56.6638 48.5871 57.0924 48.6061 57.9011C48.6423 58.398 48.7128 58.8918 48.8172 59.379C48.9126 60.0351 49.2311 60.6382 49.7191 61.087C50.2071 61.5358 50.8348 61.8027 51.4965 61.8429C52.206 61.8872 52.9175 61.8872 53.6269 61.8429C54.2682 61.8224 54.8824 61.5798 55.3646 61.1566C55.8468 60.7333 56.1669 60.1557 56.2704 59.5226C56.3907 58.9314 56.4815 58.3318 56.5638 57.7343C56.775 56.2563 57.8011 55.8045 58.9793 56.6554C59.5536 57.0776 60.1293 57.4922 60.7064 57.899C61.248 58.2841 61.9122 58.4569 62.5728 58.3846C64.1437 58.2558 66.3036 56.0009 66.3733 54.4258C66.394 53.8189 66.207 53.2231 65.8433 52.7368C65.4591 52.2047 65.0854 51.66 64.6589 51.1617C64.3041 50.75 64.3084 50.408 64.49 49.8949C64.7475 49.1602 65.1677 48.8815 65.9067 48.8393C66.5107 48.8016 67.1096 48.7054 67.695 48.5521C68.9069 48.2502 69.6417 47.4479 69.8782 46.2297C69.9481 45.7357 69.9883 45.2379 69.9985 44.7391C69.9563 42.1316 69.2807 41.3335 66.7048 40.888ZM67.0384 45.5329C66.9919 45.8876 66.7977 45.9552 66.5232 45.9953C65.8201 46.1009 65.1213 46.2191 64.4118 46.3184C64.0731 46.3673 63.7462 46.4775 63.4469 46.6435C61.7578 47.583 60.9977 50.4439 62.0175 52.078L62.6509 53.0788C63.411 54.297 63.3224 54.7679 62.1653 55.6124C62.083 55.6715 61.9922 55.7222 61.9035 55.7771C61.7557 55.6757 61.6248 55.5913 61.4981 55.4984C60.9492 55.0888 60.396 54.6876 59.8576 54.2675C59.1228 53.6911 58.2867 53.4736 57.4105 53.7439C55.0711 54.4659 54.0978 55.0107 53.8908 57.445C53.8739 57.6561 53.8212 57.8673 53.7853 58.0679C53.5741 59.3346 53.5742 59.2988 52.3284 59.3473C51.695 59.3705 51.4269 59.1362 51.391 58.5323C51.3656 58.089 51.2432 57.6498 51.2179 57.2043C51.0701 54.6159 48.5174 53.6742 46.7523 53.6784C46.5288 53.6732 46.307 53.7188 46.1037 53.8117C45.9004 53.9045 45.7207 54.0423 45.5784 54.2147C45.2937 54.4877 44.9809 54.7298 44.6451 54.9368C43.3657 55.8869 43.3783 55.8742 42.3226 54.7256C42.0355 54.4153 42.0798 54.2253 42.3226 53.9339C42.8125 53.3174 43.2833 52.684 43.7415 52.0337C44.225 51.3539 44.4045 50.5917 44.1215 49.7915C43.889 49.0964 43.5973 48.4225 43.2495 47.7773C43.0538 47.417 42.7744 47.1089 42.435 46.879C42.0955 46.649 41.7058 46.5038 41.2986 46.4556C40.5955 46.3543 39.8966 46.2234 39.1872 46.1474C38.6889 46.0903 38.4483 45.9151 38.4694 45.3556C38.5412 43.5019 38.1822 43.7742 39.9706 43.6454C42.2614 43.4807 43.3889 42.2034 43.9822 40.1702C44.11 39.7544 44.1358 39.3139 44.0571 38.8861C43.9784 38.4583 43.7977 38.0557 43.5303 37.7126C43.0869 37.0919 42.6372 36.4754 42.1601 35.88C41.9362 35.5992 41.9489 35.4197 42.1812 35.1432C43.2368 33.8236 43.2368 33.8236 44.5776 34.8222C45.3503 35.3944 46.0555 36.1566 47.1366 36.0595C49.1191 35.8863 51.3107 34.9552 51.3825 32.3942C51.4017 32.1583 51.4377 31.924 51.4902 31.6933C51.7161 30.3526 52.0328 30.1435 53.3904 30.3716C53.6966 30.4243 53.7726 30.5827 53.8127 30.8424C53.9014 31.4758 54.064 32.0881 54.0809 32.713C54.1484 35.2888 58.5148 37.2756 60.2292 35.3036C60.4826 35.0122 60.8626 34.8243 61.1688 34.5879C62.102 33.8911 62.0724 33.9228 62.917 34.685C63.4511 35.1685 63.5652 35.5654 63.0183 36.089C62.8072 36.2875 62.6847 36.5641 62.4863 36.771C61.2004 38.1222 61.0505 39.5452 61.9183 41.2301C62.5517 42.442 63.3139 43.2316 64.699 43.3414C64.9587 43.3604 65.2163 43.4364 65.476 43.4681C67.1524 43.6687 67.258 43.8207 67.0384 45.5224V45.5329Z" fill="#C02D4E"/>
<path d="M26.5739 20.269C25.7243 20.2701 24.8833 20.4393 24.0995 20.7671C23.3157 21.0948 22.6045 21.5745 22.007 22.1784C21.4095 22.7824 20.9375 23.4987 20.6182 24.286C20.299 25.0733 20.1388 25.916 20.1468 26.7655C20.187 30.3104 22.9951 33.0467 26.5908 33.0425C30.235 33.0425 33.0495 30.2682 33.041 26.6958C33.0537 25.845 32.8948 25.0002 32.5737 24.2121C32.2527 23.424 31.7761 22.7087 31.1725 22.1088C30.5689 21.509 29.8506 21.0369 29.0605 20.7208C28.2704 20.4047 27.4247 20.251 26.5739 20.269ZM26.5633 30.6482C25.5262 30.6257 24.5389 30.1986 23.8123 29.4582C23.0856 28.7178 22.6772 27.7227 22.6742 26.6853C22.7037 24.5444 24.5258 22.7561 26.6372 22.7983C28.681 22.8364 30.5306 24.7619 30.5116 26.8289C30.4926 28.8958 28.6557 30.6672 26.5633 30.6482Z" fill="#C02D4E"/>
<path d="M52.6599 69.5598C51.6511 69.5626 50.684 69.9632 49.9689 70.6748C49.2537 71.3864 48.8482 72.3514 48.8405 73.3602C48.911 74.3191 49.3424 75.2156 50.0477 75.869C50.753 76.5225 51.6798 76.8843 52.6413 76.8817C53.6028 76.879 54.5275 76.512 55.2291 75.8546C55.9308 75.1972 56.3572 74.2983 56.4224 73.3391C56.4094 72.3437 56.0093 71.3925 55.307 70.6871C54.6047 69.9816 53.6552 69.5773 52.6599 69.5598ZM52.5987 74.475C52.4348 74.4725 52.273 74.4378 52.1226 74.3728C51.9722 74.3078 51.836 74.2137 51.7219 74.0961C51.6078 73.9785 51.518 73.8395 51.4576 73.6872C51.3972 73.5348 51.3674 73.372 51.3699 73.2082C51.383 72.8771 51.5238 72.564 51.7627 72.3346C52.0016 72.1051 52.3202 71.977 52.6515 71.9773C52.9806 72.0066 53.2879 72.1544 53.5162 72.3933C53.7445 72.6321 53.8784 72.9457 53.893 73.2757C53.8787 73.6058 53.7347 73.9169 53.4924 74.1414C53.25 74.366 52.9289 74.4858 52.5987 74.475Z" fill="#C02D4E"/>
<path d="M52.6008 37.4657C48.7074 37.4826 45.4221 40.7826 45.4221 44.6738C45.4243 45.6206 45.6134 46.5578 45.9785 47.4314C46.3436 48.3051 46.8776 49.0981 47.5498 49.765C48.222 50.4319 49.0192 50.9595 49.8958 51.3177C50.7723 51.6759 51.7109 51.8575 52.6578 51.8522C56.5639 51.8396 59.8365 48.5544 59.8365 44.6548C59.8287 42.7425 59.0623 40.9114 57.7058 39.5636C56.3492 38.2157 54.5132 37.4612 52.6008 37.4657ZM52.6641 49.3292C51.4306 49.324 50.2479 48.8373 49.368 47.9728C48.4881 47.1083 47.9806 45.9344 47.9537 44.7012C47.9283 42.1951 50.084 40.0099 52.5987 39.9951C53.8328 40.0078 55.0137 40.4993 55.8924 41.3658C56.7712 42.2323 57.2791 43.4062 57.3092 44.64C57.343 47.144 55.1894 49.3187 52.6641 49.3292Z" fill="#C02D4E"/>
<path d="M26.5739 20.269C25.7243 20.2701 24.8833 20.4393 24.0995 20.7671C23.3157 21.0948 22.6045 21.5745 22.007 22.1784C21.4095 22.7824 20.9375 23.4987 20.6182 24.286C20.299 25.0733 20.1388 25.916 20.1468 26.7655C20.187 30.3104 22.9951 33.0467 26.5908 33.0425C30.235 33.0425 33.0495 30.2682 33.041 26.6958C33.0537 25.845 32.8948 25.0002 32.5737 24.2121C32.2527 23.424 31.7761 22.7087 31.1725 22.1088C30.5689 21.509 29.8506 21.0369 29.0605 20.7208C28.2704 20.4047 27.4247 20.251 26.5739 20.269ZM26.5633 30.6482C25.5262 30.6257 24.5389 30.1986 23.8123 29.4582C23.0856 28.7178 22.6772 27.7227 22.6742 26.6853C22.7037 24.5444 24.5258 22.7561 26.6372 22.7983C28.681 22.8364 30.5306 24.7619 30.5116 26.8289C30.4926 28.8958 28.6557 30.6672 26.5633 30.6482Z" fill="#C02D4E"/>
<path d="M52.6599 69.5598C51.6511 69.5626 50.684 69.9632 49.9689 70.6748C49.2537 71.3864 48.8482 72.3514 48.8405 73.3602C48.911 74.3191 49.3424 75.2156 50.0477 75.869C50.753 76.5225 51.6798 76.8843 52.6413 76.8817C53.6028 76.879 54.5275 76.512 55.2291 75.8546C55.9308 75.1972 56.3572 74.2983 56.4224 73.3391C56.4094 72.3437 56.0093 71.3925 55.307 70.6871C54.6047 69.9816 53.6552 69.5773 52.6599 69.5598ZM52.5987 74.475C52.4348 74.4725 52.273 74.4378 52.1226 74.3728C51.9722 74.3078 51.836 74.2137 51.7219 74.0961C51.6078 73.9785 51.518 73.8395 51.4576 73.6872C51.3972 73.5348 51.3674 73.372 51.3699 73.2082C51.383 72.8771 51.5238 72.564 51.7627 72.3346C52.0016 72.1051 52.3202 71.977 52.6515 71.9773C52.9806 72.0066 53.2879 72.1544 53.5162 72.3933C53.7445 72.6321 53.8784 72.9457 53.893 73.2757C53.8787 73.6058 53.7347 73.9169 53.4924 74.1414C53.25 74.366 52.9289 74.4858 52.5987 74.475Z" fill="#C02D4E"/>
<path d="M52.6008 37.4657C48.7074 37.4826 45.4221 40.7826 45.4221 44.6738C45.4243 45.6206 45.6134 46.5578 45.9785 47.4314C46.3436 48.3051 46.8776 49.0981 47.5498 49.765C48.222 50.4319 49.0192 50.9595 49.8958 51.3177C50.7723 51.6759 51.7109 51.8575 52.6578 51.8522C56.5639 51.8396 59.8365 48.5544 59.8365 44.6548C59.8287 42.7425 59.0623 40.9114 57.7058 39.5636C56.3492 38.2157 54.5132 37.4612 52.6008 37.4657ZM52.6641 49.3292C51.4306 49.324 50.2479 48.8373 49.368 47.9728C48.4881 47.1083 47.9806 45.9344 47.9537 44.7012C47.9283 42.1951 50.084 40.0099 52.5987 39.9951C53.8328 40.0078 55.0137 40.4993 55.8924 41.3658C56.7712 42.2323 57.2791 43.4062 57.3092 44.64C57.343 47.144 55.1894 49.3187 52.6641 49.3292Z" fill="#C02D4E"/>
</g>
<defs>
<clipPath id="clip0_2_4579">
<rect width="80.8889" height="80.8889" fill="white" transform="translate(11.5557 11.5555)"/>
</clipPath>
</defs>
</svg>
